<svg width="12" height="10" viewBox="0 0 12 10" fill="none" xmlns="http://www.w3.org/2000/svg">
<path d="M11.7874 5.50609L7.46811 9.79049C7.33288 9.92464 7.14945 10 6.9582 10C6.76695 10 6.58353 9.92464 6.44829 9.79049C6.31305 9.65635 6.23708 9.47441 6.23708 9.28469C6.23708 9.09498 6.31305 8.91304 6.44829 8.7789L9.53835 5.71496H0.719876C0.528953 5.71496 0.34585 5.63973 0.210847 5.50581C0.0758439 5.3719 0 5.19027 0 5.00089C0 4.81151 0.0758439 4.62988 0.210847 4.49597C0.34585 4.36206 0.528953 4.28683 0.719876 4.28683H9.53835L6.44949 1.2211C6.31425 1.08696 6.23828 0.905015 6.23828 0.715305C6.23828 0.525594 6.31425 0.343653 6.44949 0.209508C6.58472 0.0753621 6.76815 1.99893e-09 6.9594 0C7.15065 -1.99893e-09 7.33407 0.0753621 7.46931 0.209508L11.7886 4.49391C11.8557 4.56033 11.9089 4.63926 11.9452 4.72615C11.9815 4.81305 12.0001 4.90619 12 5.00025C11.9999 5.0943 11.981 5.1874 11.9446 5.27421C11.9081 5.36102 11.8546 5.43982 11.7874 5.50609Z" fill="black"/>
</svg>
