<svg width="7" height="12" viewBox="0 0 7 12" fill="none" xmlns="http://www.w3.org/2000/svg">
<path d="M4.2002 5.9998L0.300196 9.8998C0.116862 10.0831 0.0251951 10.3165 0.0251951 10.5998C0.0251951 10.8831 0.116862 11.1165 0.300196 11.2998C0.483529 11.4831 0.716862 11.5748 1.0002 11.5748C1.28353 11.5748 1.51686 11.4831 1.7002 11.2998L6.3002 6.6998C6.4002 6.5998 6.47086 6.49147 6.5122 6.3748C6.55353 6.25814 6.57453 6.13314 6.5752 5.9998C6.5752 5.86647 6.5542 5.74147 6.5122 5.6248C6.4702 5.50814 6.39953 5.3998 6.3002 5.2998L1.7002 0.699804C1.51686 0.516471 1.28353 0.424805 1.0002 0.424805C0.716862 0.424805 0.483529 0.516471 0.300196 0.699804C0.116862 0.883138 0.0251951 1.11647 0.0251951 1.3998C0.0251951 1.68314 0.116862 1.91647 0.300196 2.0998L4.2002 5.9998Z" fill="#FCFCFC"/>
</svg>
