<svg width="68" height="68" viewBox="0 0 68 68" fill="none" xmlns="http://www.w3.org/2000/svg">
<circle cx="34" cy="34" r="34" fill="#57BEEA" fill-opacity="0.1"/>
<path d="M8 34C8 19.6406 19.6406 8 34 8C48.3594 8 60 19.6406 60 34C60 48.3594 48.3594 60 34 60C19.6406 60 8 48.3594 8 34Z" fill="white"/>
<path d="M41.2726 34C41.2726 34.9644 40.8894 35.8893 40.2075 36.5713C39.5255 37.2532 38.6006 37.6364 37.6362 37.6364H36.7271V30.3636H37.6362C38.6006 30.3636 39.5255 30.7468 40.2075 31.4287C40.8894 32.1107 41.2726 33.0356 41.2726 34ZM45.818 25.8182V42.1818C45.818 42.664 45.6264 43.1265 45.2855 43.4675C44.9445 43.8084 44.482 44 43.9998 44H23.9998C23.5176 44 23.0551 43.8084 22.7142 43.4675C22.3732 43.1265 22.1816 42.664 22.1816 42.1818V25.8182C22.1816 25.336 22.3732 24.8735 22.7142 24.5325C23.0551 24.1916 23.5176 24 23.9998 24H43.9998C44.482 24 44.9445 24.1916 45.2855 24.5325C45.6264 24.8735 45.818 25.336 45.818 25.8182ZM33.0907 36.2727C33.0907 34.0136 30.8271 33.392 29.1737 32.9386C27.8032 32.5625 26.901 32.275 26.901 31.7273C26.901 30.9625 27.8214 30.3636 28.9964 30.3636C29.9055 30.3636 30.6839 30.7193 30.976 31.2727C31.032 31.3782 31.1082 31.4715 31.2004 31.5475C31.2925 31.6234 31.3987 31.6805 31.5128 31.7154C31.627 31.7504 31.7469 31.7625 31.8658 31.751C31.9846 31.7396 32.1001 31.7049 32.2055 31.6489C32.3109 31.5928 32.4043 31.5166 32.4803 31.4245C32.5562 31.3323 32.6133 31.2262 32.6482 31.112C32.6831 30.9978 32.6952 30.8779 32.6838 30.759C32.6724 30.6402 32.6377 30.5247 32.5816 30.4193C31.9725 29.2625 30.5987 28.5455 28.9998 28.5455C26.768 28.5455 25.0862 29.9091 25.0862 31.7273C25.0862 33.7023 27.0862 34.2511 28.693 34.692C30.5112 35.1909 31.2725 35.5216 31.2725 36.2727C31.2725 36.9182 30.3396 37.6364 28.9998 37.6364C27.66 37.6364 26.7271 36.9182 26.7271 36.2727C26.7271 36.0316 26.6313 35.8004 26.4608 35.6299C26.2903 35.4594 26.0591 35.3636 25.818 35.3636C25.5769 35.3636 25.3457 35.4594 25.1752 35.6299C25.0047 35.8004 24.9089 36.0316 24.9089 36.2727C24.9089 38.0568 26.7055 39.4545 28.9998 39.4545C31.2941 39.4545 33.0907 38.0568 33.0907 36.2727ZM43.0907 34C43.0892 32.5538 42.5141 31.1673 41.4915 30.1447C40.4689 29.1221 39.0824 28.547 37.6362 28.5455H35.818C35.5769 28.5455 35.3457 28.6412 35.1752 28.8117C35.0047 28.9822 34.9089 29.2134 34.9089 29.4545V38.5455C34.9089 38.7866 35.0047 39.0178 35.1752 39.1883C35.3457 39.3588 35.5769 39.4545 35.818 39.4545H37.6362C39.0824 39.453 40.4689 38.8779 41.4915 37.8553C42.5141 36.8327 43.0892 35.4462 43.0907 34Z" fill="#012F5B"/>
</svg>
