<svg width="68" height="68" viewBox="0 0 68 68" fill="none" xmlns="http://www.w3.org/2000/svg">
<circle cx="34" cy="34" r="34" fill="#57BEEA" fill-opacity="0.1"/>
<path d="M8 34C8 19.6406 19.6406 8 34 8C48.3594 8 60 19.6406 60 34C60 48.3594 48.3594 60 34 60C19.6406 60 8 48.3594 8 34Z" fill="white"/>
<path d="M43.9964 28.8451V25.666C43.9964 25.2242 43.8209 24.8004 43.5085 24.488C43.196 24.1755 42.7723 24 42.3304 24H24.0039C23.5621 24 23.1383 24.1755 22.8259 24.488C22.5134 24.8004 22.3379 25.2242 22.3379 25.666V38.9944C22.3379 39.4362 22.5134 39.86 22.8259 40.1724C23.1383 40.4849 23.5621 40.6604 24.0039 40.6604H36.4992V43.1595C36.4979 43.3063 36.5355 43.4509 36.608 43.5786C36.6806 43.7063 36.7856 43.8125 36.9125 43.8865C37.0394 43.9605 37.1835 43.9997 37.3304 44C37.4773 44.0003 37.6216 43.9618 37.7488 43.8884L40.2478 42.4577L42.7469 43.8884C42.8741 43.9618 43.0184 44.0003 43.1653 44C43.3122 43.9997 43.4563 43.9605 43.5832 43.8865C43.71 43.8125 43.8151 43.7063 43.8877 43.5786C43.9602 43.4509 43.9978 43.3063 43.9964 43.1595V36.6484C44.523 36.1441 44.9421 35.5385 45.2284 34.8679C45.5147 34.1974 45.6623 33.4758 45.6623 32.7467C45.6623 32.0176 45.5147 31.2961 45.2284 30.6255C44.9421 29.955 44.523 29.3493 43.9964 28.8451ZM33.1672 34.8293H27.336C27.1151 34.8293 26.9032 34.7415 26.747 34.5853C26.5908 34.4291 26.503 34.2172 26.503 33.9963C26.503 33.7753 26.5908 33.5634 26.747 33.4072C26.9032 33.251 27.1151 33.1632 27.336 33.1632H33.1672C33.3881 33.1632 33.6 33.251 33.7562 33.4072C33.9124 33.5634 34.0002 33.7753 34.0002 33.9963C34.0002 34.2172 33.9124 34.4291 33.7562 34.5853C33.6 34.7415 33.3881 34.8293 33.1672 34.8293ZM33.1672 31.4972H27.336C27.1151 31.4972 26.9032 31.4094 26.747 31.2532C26.5908 31.097 26.503 30.8851 26.503 30.6642C26.503 30.4432 26.5908 30.2314 26.747 30.0751C26.9032 29.9189 27.1151 29.8311 27.336 29.8311H33.1672C33.3881 29.8311 33.6 29.9189 33.7562 30.0751C33.9124 30.2314 34.0002 30.4432 34.0002 30.6642C34.0002 30.8851 33.9124 31.097 33.7562 31.2532C33.6 31.4094 33.3881 31.4972 33.1672 31.4972ZM42.3304 41.7236L40.6644 40.7698C40.5385 40.6978 40.396 40.6599 40.251 40.6599C40.106 40.6599 39.9635 40.6978 39.8376 40.7698L38.1715 41.7236V37.7448C38.8313 38.0205 39.5391 38.1624 40.2541 38.1624C40.9691 38.1624 41.6769 38.0205 42.3366 37.7448L42.3304 41.7236ZM40.2478 36.4953C39.5064 36.4953 38.7817 36.2755 38.1652 35.8636C37.5488 35.4517 37.0683 34.8662 36.7846 34.1812C36.5009 33.4963 36.4266 32.7426 36.5713 32.0154C36.7159 31.2882 37.0729 30.6203 37.5972 30.0961C38.1214 29.5718 38.7894 29.2148 39.5165 29.0702C40.2437 28.9255 40.9974 28.9997 41.6824 29.2835C42.3673 29.5672 42.9528 30.0477 43.3647 30.6641C43.7766 31.2806 43.9964 32.0053 43.9964 32.7467C43.9964 33.239 43.8995 33.7264 43.7111 34.1812C43.5227 34.636 43.2466 35.0493 42.8985 35.3974C42.5504 35.7455 42.1372 36.0216 41.6824 36.21C41.2276 36.3984 40.7401 36.4953 40.2478 36.4953Z" fill="#012F5B"/>
</svg>
