<svg width="140" height="56" viewBox="0 0 140 56" fill="none" xmlns="http://www.w3.org/2000/svg">
<rect width="140" height="56" rx="20" fill="white"/>
<g clip-path="url(#clip0_606_6137)">
<path d="M15 21C15 19.8954 15.8954 19 17 19H39C40.1046 19 41 19.8954 41 21V35C41 36.1046 40.1046 37 39 37H17C15.8954 37 15 36.1046 15 35V21Z" fill="white"/>
<path fill-rule="evenodd" clip-rule="evenodd" d="M15 19H26.1429V27.4H15V19Z" fill="#1A47B8"/>
<path fill-rule="evenodd" clip-rule="evenodd" d="M26.1429 19V20.2H41V19H26.1429ZM26.1429 21.4V22.6H41V21.4H26.1429ZM26.1429 23.8V25H41V23.8H26.1429ZM26.1429 26.2V27.4H41V26.2H26.1429ZM15 28.6V29.8H41V28.6H15ZM15 31V32.2H41V31H15ZM15 33.4V34.6H41V33.4H15ZM15 35.8V37H41V35.8H15Z" fill="#F93939"/>
<path fill-rule="evenodd" clip-rule="evenodd" d="M16.2383 20.2V21.4H17.4764V20.2H16.2383ZM18.7145 20.2V21.4H19.9526V20.2H18.7145ZM21.1907 20.2V21.4H22.4288V20.2H21.1907ZM23.6669 20.2V21.4H24.9049V20.2H23.6669ZM22.4288 21.4V22.6H23.6669V21.4H22.4288ZM19.9526 21.4V22.6H21.1907V21.4H19.9526ZM17.4764 21.4V22.6H18.7145V21.4H17.4764ZM16.2383 22.6V23.8H17.4764V22.6H16.2383ZM18.7145 22.6V23.8H19.9526V22.6H18.7145ZM21.1907 22.6V23.8H22.4288V22.6H21.1907ZM23.6669 22.6V23.8H24.9049V22.6H23.6669ZM16.2383 25V26.2H17.4764V25H16.2383ZM18.7145 25V26.2H19.9526V25H18.7145ZM21.1907 25V26.2H22.4288V25H21.1907ZM23.6669 25V26.2H24.9049V25H23.6669ZM22.4288 23.8V25H23.6669V23.8H22.4288ZM19.9526 23.8V25H21.1907V23.8H19.9526ZM17.4764 23.8V25H18.7145V23.8H17.4764Z" fill="white"/>
</g>
<path d="M52.3906 36V20H63.1719V22.7891H55.7734V26.6016H62.6172V29.3906H55.7734V33.2109H63.2031V36H52.3906ZM68.247 29.0625V36H64.9188V24H68.0907V26.1172H68.2313C68.497 25.4193 68.9423 24.8672 69.5673 24.4609C70.1923 24.0495 70.9501 23.8438 71.8407 23.8438C72.674 23.8438 73.4006 24.026 74.0204 24.3906C74.6402 24.7552 75.122 25.276 75.4657 25.9531C75.8095 26.625 75.9813 27.4271 75.9813 28.3594V36H72.6532V28.9531C72.6584 28.2187 72.4709 27.6458 72.0907 27.2344C71.7105 26.8177 71.1871 26.6094 70.5204 26.6094C70.0725 26.6094 69.6766 26.7057 69.3329 26.8984C68.9943 27.0911 68.7287 27.3724 68.536 27.7422C68.3485 28.1068 68.2522 28.5469 68.247 29.0625ZM83.1306 40.75C82.0525 40.75 81.128 40.6016 80.3572 40.3047C79.5916 40.013 78.9822 39.6146 78.5291 39.1094C78.0759 38.6042 77.7817 38.0365 77.6462 37.4062L80.7244 36.9922C80.8181 37.2318 80.9666 37.4557 81.1697 37.6641C81.3728 37.8724 81.641 38.0391 81.9744 38.1641C82.3129 38.2943 82.7244 38.3594 83.2087 38.3594C83.9327 38.3594 84.5291 38.1823 84.9978 37.8281C85.4718 37.4792 85.7088 36.8932 85.7088 36.0703V33.875H85.5681C85.4223 34.2083 85.2035 34.5234 84.9119 34.8203C84.6202 35.1172 84.2452 35.3594 83.7869 35.5469C83.3285 35.7344 82.7817 35.8281 82.1463 35.8281C81.2452 35.8281 80.4249 35.6198 79.6853 35.2031C78.9509 34.7812 78.365 34.138 77.9275 33.2734C77.4952 32.4036 77.2791 31.3047 77.2791 29.9766C77.2791 28.6172 77.5004 27.4818 77.9431 26.5703C78.3858 25.6589 78.9744 24.9766 79.7087 24.5234C80.4483 24.0703 81.2582 23.8438 82.1384 23.8438C82.8103 23.8438 83.3728 23.9583 83.8259 24.1875C84.2791 24.4115 84.6436 24.6927 84.9197 25.0312C85.2009 25.3646 85.4171 25.6927 85.5681 26.0156H85.6931V24H88.9978V36.1172C88.9978 37.138 88.7478 37.9922 88.2478 38.6797C87.7478 39.3672 87.0551 39.8828 86.1697 40.2266C85.2895 40.5755 84.2765 40.75 83.1306 40.75ZM83.2009 33.3281C83.7374 33.3281 84.1905 33.1953 84.5603 32.9297C84.9353 32.6589 85.2218 32.2734 85.4197 31.7734C85.6228 31.2682 85.7244 30.6641 85.7244 29.9609C85.7244 29.2578 85.6254 28.6484 85.4275 28.1328C85.2296 27.612 84.9431 27.2083 84.5681 26.9219C84.1931 26.6354 83.7374 26.4922 83.2009 26.4922C82.6541 26.4922 82.1931 26.6406 81.8181 26.9375C81.4431 27.2292 81.1593 27.6354 80.9666 28.1562C80.7739 28.6771 80.6775 29.2786 80.6775 29.9609C80.6775 30.6536 80.7739 31.2526 80.9666 31.7578C81.1645 32.2578 81.4483 32.6458 81.8181 32.9219C82.1931 33.1927 82.6541 33.3281 83.2009 33.3281ZM94.0944 20V36H90.7663V20H94.0944ZM95.8804 36V24H99.2085V36H95.8804ZM97.5523 22.4531C97.0575 22.4531 96.633 22.2891 96.2788 21.9609C95.9299 21.6276 95.7554 21.2292 95.7554 20.7656C95.7554 20.3073 95.9299 19.9141 96.2788 19.5859C96.633 19.2526 97.0575 19.0859 97.5523 19.0859C98.0471 19.0859 98.4689 19.2526 98.8179 19.5859C99.1721 19.9141 99.3491 20.3073 99.3491 20.7656C99.3491 21.2292 99.1721 21.6276 98.8179 21.9609C98.4689 22.2891 98.0471 22.4531 97.5523 22.4531ZM110.979 27.4219L107.932 27.6094C107.88 27.349 107.768 27.1146 107.596 26.9062C107.424 26.6927 107.198 26.5234 106.916 26.3984C106.64 26.2682 106.31 26.2031 105.924 26.2031C105.409 26.2031 104.974 26.3125 104.62 26.5312C104.265 26.7448 104.088 27.0312 104.088 27.3906C104.088 27.6771 104.203 27.9193 104.432 28.1172C104.661 28.3151 105.054 28.474 105.612 28.5937L107.784 29.0312C108.95 29.2708 109.82 29.6562 110.393 30.1875C110.966 30.7187 111.252 31.4167 111.252 32.2812C111.252 33.0677 111.021 33.7578 110.557 34.3516C110.099 34.9453 109.468 35.4089 108.666 35.7422C107.87 36.0703 106.95 36.2344 105.909 36.2344C104.32 36.2344 103.054 35.9036 102.112 35.2422C101.174 34.5755 100.625 33.6693 100.463 32.5234L103.737 32.3516C103.836 32.8359 104.075 33.2057 104.455 33.4609C104.836 33.7109 105.323 33.8359 105.916 33.8359C106.5 33.8359 106.968 33.724 107.323 33.5C107.682 33.2708 107.864 32.9766 107.87 32.6172C107.864 32.3151 107.737 32.0677 107.487 31.875C107.237 31.6771 106.851 31.526 106.33 31.4219L104.252 31.0078C103.08 30.7734 102.208 30.3672 101.635 29.7891C101.067 29.2109 100.784 28.474 100.784 27.5781C100.784 26.8073 100.992 26.1432 101.409 25.5859C101.83 25.0286 102.422 24.599 103.182 24.2969C103.948 23.9948 104.843 23.8438 105.87 23.8438C107.385 23.8438 108.578 24.1641 109.448 24.8047C110.323 25.4453 110.833 26.3177 110.979 27.4219ZM115.796 29.0625V36H112.468V20H115.702V26.1172H115.843C116.114 25.4089 116.551 24.8542 117.156 24.4531C117.76 24.0469 118.518 23.8438 119.429 23.8438C120.262 23.8438 120.989 24.026 121.609 24.3906C122.234 24.75 122.718 25.2682 123.062 25.9453C123.411 26.6172 123.583 27.4219 123.577 28.3594V36H120.249V28.9531C120.255 28.2135 120.067 27.638 119.687 27.2266C119.312 26.8151 118.786 26.6094 118.109 26.6094C117.656 26.6094 117.255 26.7057 116.906 26.8984C116.562 27.0911 116.291 27.3724 116.093 27.7422C115.9 28.1068 115.801 28.5469 115.796 29.0625Z" fill="#0A071B"/>
<defs>
<clipPath id="clip0_606_6137">
<path d="M15 21C15 19.8954 15.8954 19 17 19H39C40.1046 19 41 19.8954 41 21V35C41 36.1046 40.1046 37 39 37H17C15.8954 37 15 36.1046 15 35V21Z" fill="white"/>
</clipPath>
</defs>
</svg>
