<svg width="26" height="18" viewBox="0 0 26 18" fill="none" xmlns="http://www.w3.org/2000/svg">
<g clip-path="url(#clip0_223_3967)">
<path d="M0 2C0 0.89543 0.895431 0 2 0H24C25.1046 0 26 0.895431 26 2V16C26 17.1046 25.1046 18 24 18H2C0.89543 18 0 17.1046 0 16V2Z" fill="white"/>
<path fill-rule="evenodd" clip-rule="evenodd" d="M0 0H11.1429V8.4H0V0Z" fill="#1A47B8"/>
<path fill-rule="evenodd" clip-rule="evenodd" d="M11.1429 0V1.2H26V0H11.1429ZM11.1429 2.4V3.6H26V2.4H11.1429ZM11.1429 4.8V6H26V4.8H11.1429ZM11.1429 7.2V8.4H26V7.2H11.1429ZM0 9.6V10.8H26V9.6H0ZM0 12V13.2H26V12H0ZM0 14.4V15.6H26V14.4H0ZM0 16.8V18H26V16.8H0Z" fill="#F93939"/>
<path fill-rule="evenodd" clip-rule="evenodd" d="M1.23804 1.20001V2.40001H2.47613V1.20001H1.23804ZM3.71423 1.20001V2.40001H4.95232V1.20001H3.71423ZM6.19042 1.20001V2.40001H7.42851V1.20001H6.19042ZM8.66661 1.20001V2.40001H9.9047V1.20001H8.66661ZM7.42851 2.40001V3.60001H8.66661V2.40001H7.42851ZM4.95232 2.40001V3.60001H6.19042V2.40001H4.95232ZM2.47613 2.40001V3.60001H3.71423V2.40001H2.47613ZM1.23804 3.60001V4.80001H2.47613V3.60001H1.23804ZM3.71423 3.60001V4.80001H4.95232V3.60001H3.71423ZM6.19042 3.60001V4.80001H7.42851V3.60001H6.19042ZM8.66661 3.60001V4.80001H9.9047V3.60001H8.66661ZM1.23804 6.00001V7.20001H2.47613V6.00001H1.23804ZM3.71423 6.00001V7.20001H4.95232V6.00001H3.71423ZM6.19042 6.00001V7.20001H7.42851V6.00001H6.19042ZM8.66661 6.00001V7.20001H9.9047V6.00001H8.66661ZM7.42851 4.80001V6.00001H8.66661V4.80001H7.42851ZM4.95232 4.80001V6.00001H6.19042V4.80001H4.95232ZM2.47613 4.80001V6.00001H3.71423V4.80001H2.47613Z" fill="white"/>
</g>
<defs>
<clipPath id="clip0_223_3967">
<path d="M0 2C0 0.89543 0.895431 0 2 0H24C25.1046 0 26 0.895431 26 2V16C26 17.1046 25.1046 18 24 18H2C0.89543 18 0 17.1046 0 16V2Z" fill="white"/>
</clipPath>
</defs>
</svg>
