<svg width="139" height="139" viewBox="0 0 139 139" fill="none" xmlns="http://www.w3.org/2000/svg">
<g filter="url(#filter0_d_406_9020)">
<circle cx="66" cy="66" r="47" fill="white"/>
</g>
<g clip-path="url(#clip0_406_9020)">
<path d="M46 54C46 52.8954 46.8954 52 48 52H84C85.1046 52 86 52.8954 86 54V78C86 79.1046 85.1046 80 84 80H48C46.8954 80 46 79.1046 46 78V54Z" fill="white"/>
<path fill-rule="evenodd" clip-rule="evenodd" d="M46 52H63.1429V65.0667H46V52Z" fill="#1A47B8"/>
<path fill-rule="evenodd" clip-rule="evenodd" d="M63.1429 52V53.8667H86V52H63.1429ZM63.1429 55.7333V57.6H86V55.7333H63.1429ZM63.1429 59.4667V61.3333H86V59.4667H63.1429ZM63.1429 63.2V65.0667H86V63.2H63.1429ZM46 66.9333V68.8H86V66.9333H46ZM46 70.6667V72.5333H86V70.6667H46ZM46 74.4V76.2667H86V74.4H46ZM46 78.1333V80H86V78.1333H46Z" fill="#F93939"/>
<path fill-rule="evenodd" clip-rule="evenodd" d="M47.9048 53.8667V55.7334H49.8095V53.8667H47.9048ZM51.7143 53.8667V55.7334H53.6191V53.8667H51.7143ZM55.5238 53.8667V55.7334H57.4286V53.8667H55.5238ZM59.3334 53.8667V55.7334H61.2381V53.8667H59.3334ZM57.4286 55.7334V57.6H59.3334V55.7334H57.4286ZM53.6191 55.7334V57.6H55.5238V55.7334H53.6191ZM49.8095 55.7334V57.6H51.7143V55.7334H49.8095ZM47.9048 57.6V59.4667H49.8095V57.6H47.9048ZM51.7143 57.6V59.4667H53.6191V57.6H51.7143ZM55.5238 57.6V59.4667H57.4286V57.6H55.5238ZM59.3334 57.6V59.4667H61.2381V57.6H59.3334ZM47.9048 61.3334V63.2H49.8095V61.3334H47.9048ZM51.7143 61.3334V63.2H53.6191V61.3334H51.7143ZM55.5238 61.3334V63.2H57.4286V61.3334H55.5238ZM59.3334 61.3334V63.2H61.2381V61.3334H59.3334ZM57.4286 59.4667V61.3334H59.3334V59.4667H57.4286ZM53.6191 59.4667V61.3334H55.5238V59.4667H53.6191ZM49.8095 59.4667V61.3334H51.7143V59.4667H49.8095Z" fill="white"/>
</g>
<defs>
<filter id="filter0_d_406_9020" x="0.736371" y="0.736371" width="138" height="138" filterUnits="userSpaceOnUse" color-interpolation-filters="sRGB">
<feFlood flood-opacity="0" result="BackgroundImageFix"/>
<feColorMatrix in="SourceAlpha" type="matrix" values="0 0 0 0 0 0 0 0 0 0 0 0 0 0 0 0 0 0 127 0" result="hardAlpha"/>
<feOffset dx="3.73637" dy="3.73637"/>
<feGaussianBlur stdDeviation="11"/>
<feColorMatrix type="matrix" values="0 0 0 0 0.341176 0 0 0 0 0.745098 0 0 0 0 0.917647 0 0 0 0.12 0"/>
<feBlend mode="normal" in2="BackgroundImageFix" result="effect1_dropShadow_406_9020"/>
<feBlend mode="normal" in="SourceGraphic" in2="effect1_dropShadow_406_9020" result="shape"/>
</filter>
<clipPath id="clip0_406_9020">
<path d="M46 54C46 52.8954 46.8954 52 48 52H84C85.1046 52 86 52.8954 86 54V78C86 79.1046 85.1046 80 84 80H48C46.8954 80 46 79.1046 46 78V54Z" fill="white"/>
</clipPath>
</defs>
</svg>
