<svg width="67" height="66" viewBox="0 0 67 66" fill="none" xmlns="http://www.w3.org/2000/svg">
<path d="M44.5 33.6497L49.6769 44H39.3231L41.5094 39.6344L44.5 33.6497ZM66.5 5.5V60.5C66.5 61.9587 65.9205 63.3576 64.8891 64.3891C63.8576 65.4205 62.4587 66 61 66H6C4.54131 66 3.14236 65.4205 2.11091 64.3891C1.07946 63.3576 0.5 61.9587 0.5 60.5V5.5C0.5 4.04131 1.07946 2.64236 2.11091 1.61091C3.14236 0.579462 4.54131 0 6 0H61C62.4587 0 63.8576 0.579462 64.8891 1.61091C65.9205 2.64236 66.5 4.04131 66.5 5.5ZM60.7113 53.7694L46.9613 26.2694C46.7332 25.8118 46.382 25.4268 45.9473 25.1577C45.5125 24.8886 45.0113 24.7461 44.5 24.7461C43.9887 24.7461 43.4875 24.8886 43.0527 25.1577C42.618 25.4268 42.2668 25.8118 42.0387 26.2694L37.5081 35.3375C34.5938 34.7667 31.8299 33.5961 29.3922 31.9C33.1918 27.5984 35.5427 22.211 36.1125 16.5H41.75C42.4793 16.5 43.1788 16.2103 43.6945 15.6945C44.2103 15.1788 44.5 14.4793 44.5 13.75C44.5 13.0207 44.2103 12.3212 43.6945 11.8055C43.1788 11.2897 42.4793 11 41.75 11H28V8.25C28 7.52065 27.7103 6.82118 27.1945 6.30546C26.6788 5.78973 25.9793 5.5 25.25 5.5C24.5207 5.5 23.8212 5.78973 23.3055 6.30546C22.7897 6.82118 22.5 7.52065 22.5 8.25V11H8.75C8.02065 11 7.32118 11.2897 6.80546 11.8055C6.28973 12.3212 6 13.0207 6 13.75C6 14.4793 6.28973 15.1788 6.80546 15.6945C7.32118 16.2103 8.02065 16.5 8.75 16.5H30.5713C30.0257 20.8391 28.194 24.9155 25.3119 28.2047C24.0909 26.7793 23.0517 25.2078 22.2181 23.5263C21.8804 22.8964 21.3107 22.4228 20.6298 22.2058C19.9489 21.9887 19.2102 22.0453 18.5703 22.3635C17.9303 22.6817 17.4394 23.2365 17.2015 23.9104C16.9636 24.5843 16.9973 25.3243 17.2956 25.9737C18.3482 28.0962 19.6648 30.077 21.2144 31.8691C17.5516 34.4015 13.203 35.7555 8.75 35.75C8.02065 35.75 7.32118 36.0397 6.80546 36.5555C6.28973 37.0712 6 37.7707 6 38.5C6 39.2293 6.28973 39.9288 6.80546 40.4445C7.32118 40.9603 8.02065 41.25 8.75 41.25C14.72 41.2564 20.5282 39.309 25.2878 35.7053C28.1678 37.9066 31.4626 39.5037 34.9747 40.4009L28.2887 53.7694C27.9624 54.4221 27.9087 55.1778 28.1395 55.8702C28.3702 56.5625 28.8666 57.1349 29.5194 57.4613C30.1721 57.7876 30.9278 57.8413 31.6202 57.6105C32.3125 57.3798 32.8849 56.8834 33.2113 56.2306L36.5731 49.5H52.4269L55.7887 56.2306C55.9504 56.5538 56.174 56.8421 56.447 57.0788C56.72 57.3156 57.037 57.4963 57.3798 57.6105C57.7226 57.7248 58.0846 57.7705 58.4451 57.7448C58.8055 57.7192 59.1574 57.6229 59.4806 57.4613C59.8038 57.2996 60.0921 57.076 60.3288 56.803C60.5656 56.53 60.7463 56.213 60.8605 55.8702C60.9748 55.5274 61.0205 55.1654 60.9948 54.8049C60.9692 54.4445 60.8729 54.0926 60.7113 53.7694Z" fill="#012F5B"/>
</svg>
