<svg width="73" height="62" viewBox="0 0 73 62" fill="none" xmlns="http://www.w3.org/2000/svg">
<path d="M58.5 31C58.5 33.9174 57.3411 36.7153 55.2782 38.7782C53.2153 40.8411 50.4174 42 47.5 42H44.75V20H47.5C50.4174 20 53.2153 21.1589 55.2782 23.2218C57.3411 25.2847 58.5 28.0826 58.5 31ZM72.25 6.25V55.75C72.25 57.2087 71.6705 58.6076 70.6391 59.6391C69.6076 60.6705 68.2087 61.25 66.75 61.25H6.25C4.79131 61.25 3.39236 60.6705 2.36091 59.6391C1.32946 58.6076 0.75 57.2087 0.75 55.75V6.25C0.75 4.79131 1.32946 3.39236 2.36091 2.36091C3.39236 1.32946 4.79131 0.75 6.25 0.75H66.75C68.2087 0.75 69.6076 1.32946 70.6391 2.36091C71.6705 3.39236 72.25 4.79131 72.25 6.25ZM33.75 37.875C33.75 31.0413 26.9025 29.1609 21.9009 27.7894C17.7553 26.6516 15.0259 25.7819 15.0259 24.125C15.0259 21.8116 17.8103 20 21.3647 20C24.1147 20 26.4694 21.0759 27.3528 22.75C27.5223 23.0689 27.753 23.3513 28.0316 23.5811C28.3103 23.8109 28.6315 23.9836 28.9769 24.0892C29.3222 24.1949 29.685 24.2315 30.0446 24.1969C30.4041 24.1623 30.7533 24.0573 31.0722 23.8878C31.3911 23.7183 31.6735 23.4876 31.9033 23.209C32.1331 22.9303 32.3057 22.6091 32.4114 22.2638C32.5171 21.9184 32.5536 21.5556 32.5191 21.1961C32.4845 20.8366 32.3795 20.4874 32.21 20.1684C30.3675 16.6691 26.2116 14.5 21.375 14.5C14.6238 14.5 9.53625 18.625 9.53625 24.125C9.53625 30.0994 15.5863 31.7597 20.4469 33.0934C25.9469 34.6025 28.25 35.6028 28.25 37.875C28.25 39.8275 25.4278 42 21.375 42C17.3222 42 14.5 39.8275 14.5 37.875C14.5 37.1457 14.2103 36.4462 13.6945 35.9305C13.1788 35.4147 12.4793 35.125 11.75 35.125C11.0207 35.125 10.3212 35.4147 9.80546 35.9305C9.28973 36.4462 9 37.1457 9 37.875C9 43.2719 14.4347 47.5 21.375 47.5C28.3153 47.5 33.75 43.2719 33.75 37.875ZM64 31C63.9954 26.6253 62.2556 22.4311 59.1622 19.3378C56.0689 16.2444 51.8747 14.5045 47.5 14.5H42C41.2707 14.5 40.5712 14.7897 40.0555 15.3055C39.5397 15.8212 39.25 16.5207 39.25 17.25V44.75C39.25 45.4793 39.5397 46.1788 40.0555 46.6945C40.5712 47.2103 41.2707 47.5 42 47.5H47.5C51.8747 47.4954 56.0689 45.7556 59.1622 42.6622C62.2556 39.5689 63.9954 35.3747 64 31Z" fill="#012F5B"/>
</svg>
