<svg width="71" height="62" viewBox="0 0 71 62" fill="none" xmlns="http://www.w3.org/2000/svg">
<path d="M30.125 28.25C30.125 29.3378 29.8098 30.4012 29.2191 31.3056C28.6285 32.2101 27.7891 32.9151 26.8069 33.3313C25.8248 33.7476 24.744 33.8565 23.7014 33.6443C22.6587 33.4321 21.701 32.9083 20.9493 32.1391C20.1976 31.3699 19.6857 30.3899 19.4783 29.323C19.2709 28.2561 19.3773 27.1502 19.7841 26.1452C20.191 25.1402 20.8799 24.2813 21.7638 23.6769C22.6477 23.0726 23.6869 22.75 24.75 22.75C26.1755 22.75 27.5427 23.3295 28.5507 24.3609C29.5587 25.3924 30.125 26.7913 30.125 28.25ZM70.4375 6.25V55.75C70.4375 57.2087 69.8712 58.6076 68.8632 59.6391C67.8552 60.6705 66.488 61.25 65.0625 61.25H5.9375C4.51196 61.25 3.14481 60.6705 2.1368 59.6391C1.12879 58.6076 0.5625 57.2087 0.5625 55.75V6.25C0.5625 4.79131 1.12879 3.39236 2.1368 2.36091C3.14481 1.32946 4.51196 0.75 5.9375 0.75H65.0625C66.488 0.75 67.8552 1.32946 68.8632 2.36091C69.8712 3.39236 70.4375 4.79131 70.4375 6.25ZM38.1035 44.0625C37.2338 40.7398 35.1718 37.8749 32.3287 36.0394C33.8386 34.5036 34.8688 32.5437 35.2887 30.4082C35.7087 28.2726 35.4996 26.0575 34.6878 24.0437C33.8761 22.0299 32.4982 20.3081 30.729 19.0965C28.9598 17.8849 26.8789 17.2381 24.75 17.2381C22.6211 17.2381 20.5402 17.8849 18.771 19.0965C17.0018 20.3081 15.6239 22.0299 14.8122 24.0437C14.0004 26.0575 13.7913 28.2726 14.2113 30.4082C14.6312 32.5437 15.6614 34.5036 17.1713 36.0394C14.3301 37.8769 12.2686 40.741 11.3965 44.0625C11.2183 44.7691 11.3217 45.5191 11.6839 46.1476C12.0462 46.7762 12.6376 47.2317 13.3281 47.4141C14.0186 47.5964 14.7516 47.4906 15.3659 47.1199C15.9801 46.7492 16.4253 46.1441 16.6035 45.4375C17.4904 41.9141 20.9909 39.25 24.75 39.25C28.5091 39.25 32.013 41.9072 32.8965 45.4375C33.0747 46.1441 33.5199 46.7492 34.1341 47.1199C34.7484 47.4906 35.4814 47.5964 36.1719 47.4141C36.8624 47.2317 37.4538 46.7762 37.816 46.1476C38.1783 45.5191 38.2817 44.7691 38.1035 44.0625ZM59.6875 36.5C59.6875 35.7707 59.4044 35.0712 58.9004 34.5555C58.3963 34.0397 57.7128 33.75 57 33.75H43.5625C42.8497 33.75 42.1662 34.0397 41.6621 34.5555C41.1581 35.0712 40.875 35.7707 40.875 36.5C40.875 37.2293 41.1581 37.9288 41.6621 38.4445C42.1662 38.9603 42.8497 39.25 43.5625 39.25H57C57.7128 39.25 58.3963 38.9603 58.9004 38.4445C59.4044 37.9288 59.6875 37.2293 59.6875 36.5ZM59.6875 25.5C59.6875 24.7707 59.4044 24.0712 58.9004 23.5555C58.3963 23.0397 57.7128 22.75 57 22.75H43.5625C42.8497 22.75 42.1662 23.0397 41.6621 23.5555C41.1581 24.0712 40.875 24.7707 40.875 25.5C40.875 26.2293 41.1581 26.9288 41.6621 27.4445C42.1662 27.9603 42.8497 28.25 43.5625 28.25H57C57.7128 28.25 58.3963 27.9603 58.9004 27.4445C59.4044 26.9288 59.6875 26.2293 59.6875 25.5Z" fill="#012F5B"/>
</svg>
