<svg width="66" height="78" viewBox="0 0 66 78" fill="none" xmlns="http://www.w3.org/2000/svg">
<path d="M33 11.75C26.4732 11.75 20.093 13.6854 14.6662 17.3115C9.23938 20.9376 5.00968 26.0915 2.51199 32.1214C0.0142984 38.1514 -0.639212 44.7866 0.634101 51.188C1.90741 57.5894 5.05036 63.4694 9.66549 68.0845C14.2806 72.6997 20.1607 75.8426 26.562 77.1159C32.9634 78.3892 39.5986 77.7357 45.6286 75.238C51.6585 72.7403 56.8124 68.5107 60.4385 63.0838C64.0646 57.657 66 51.2768 66 44.75C65.99 36.0009 62.51 27.6131 56.3235 21.4265C50.137 15.24 41.7491 11.76 33 11.75ZM48.6956 32.9456L34.9456 46.6956C34.6901 46.9511 34.3868 47.1538 34.053 47.2921C33.7192 47.4304 33.3614 47.5015 33 47.5015C32.6387 47.5015 32.2809 47.4304 31.9471 47.2921C31.6132 47.1538 31.3099 46.9511 31.0544 46.6956C30.7989 46.4401 30.5962 46.1368 30.4579 45.803C30.3197 45.4691 30.2485 45.1113 30.2485 44.75C30.2485 44.3887 30.3197 44.0309 30.4579 43.697C30.5962 43.3632 30.7989 43.0599 31.0544 42.8044L44.8044 29.0544C45.0599 28.7989 45.3632 28.5962 45.6971 28.4579C46.0309 28.3196 46.3887 28.2485 46.75 28.2485C47.1114 28.2485 47.4692 28.3196 47.803 28.4579C48.1368 28.5962 48.4401 28.7989 48.6956 29.0544C48.9511 29.3099 49.1538 29.6132 49.2921 29.947C49.4304 30.2809 49.5015 30.6387 49.5015 31C49.5015 31.3613 49.4304 31.7191 49.2921 32.053C49.1538 32.3868 48.9511 32.6901 48.6956 32.9456ZM22 3.5C22 2.77065 22.2897 2.07118 22.8055 1.55546C23.3212 1.03973 24.0207 0.75 24.75 0.75H41.25C41.9794 0.75 42.6788 1.03973 43.1946 1.55546C43.7103 2.07118 44 2.77065 44 3.5C44 4.22935 43.7103 4.92882 43.1946 5.44454C42.6788 5.96027 41.9794 6.25 41.25 6.25H24.75C24.0207 6.25 23.3212 5.96027 22.8055 5.44454C22.2897 4.92882 22 4.22935 22 3.5Z" fill="#012F5B"/>
</svg>
