<svg width="78" height="67" viewBox="0 0 78 67" fill="none" xmlns="http://www.w3.org/2000/svg">
<path d="M71.75 16.7447V6.25C71.75 4.79131 71.1705 3.39236 70.1391 2.36091C69.1076 1.32946 67.7087 0.75 66.25 0.75H5.75C4.29131 0.75 2.89236 1.32946 1.86091 2.36091C0.829462 3.39236 0.25 4.79131 0.25 6.25V50.25C0.25 51.7087 0.829462 53.1076 1.86091 54.1391C2.89236 55.1705 4.29131 55.75 5.75 55.75H47V64C46.9956 64.4848 47.1195 64.9622 47.3591 65.3837C47.5987 65.8052 47.9455 66.1558 48.3642 66.4001C48.783 66.6444 49.259 66.7737 49.7438 66.7747C50.2286 66.7758 50.7051 66.6487 51.125 66.4062L59.375 61.6831L67.625 66.4062C68.0449 66.6487 68.5214 66.7758 69.0062 66.7747C69.491 66.7737 69.967 66.6444 70.3858 66.4001C70.8046 66.1558 71.1513 65.8052 71.3909 65.3837C71.6305 64.9622 71.7544 64.4848 71.75 64V42.5053C73.4884 40.8406 74.8718 38.8412 75.8169 36.6276C76.762 34.414 77.2492 32.0319 77.2492 29.625C77.2492 27.2181 76.762 24.836 75.8169 22.6224C74.8718 20.4088 73.4884 18.4094 71.75 16.7447ZM36 36.5H16.75C16.0207 36.5 15.3212 36.2103 14.8055 35.6945C14.2897 35.1788 14 34.4793 14 33.75C14 33.0207 14.2897 32.3212 14.8055 31.8055C15.3212 31.2897 16.0207 31 16.75 31H36C36.7293 31 37.4288 31.2897 37.9445 31.8055C38.4603 32.3212 38.75 33.0207 38.75 33.75C38.75 34.4793 38.4603 35.1788 37.9445 35.6945C37.4288 36.2103 36.7293 36.5 36 36.5ZM36 25.5H16.75C16.0207 25.5 15.3212 25.2103 14.8055 24.6945C14.2897 24.1788 14 23.4793 14 22.75C14 22.0207 14.2897 21.3212 14.8055 20.8055C15.3212 20.2897 16.0207 20 16.75 20H36C36.7293 20 37.4288 20.2897 37.9445 20.8055C38.4603 21.3212 38.75 22.0207 38.75 22.75C38.75 23.4793 38.4603 24.1788 37.9445 24.6945C37.4288 25.2103 36.7293 25.5 36 25.5ZM66.25 59.2597L60.75 56.1109C60.3344 55.8734 59.864 55.7484 59.3853 55.7484C58.9066 55.7484 58.4362 55.8734 58.0206 56.1109L52.5206 59.2597V46.125C54.6985 47.0349 57.0353 47.5034 59.3956 47.5034C61.7559 47.5034 64.0928 47.0349 66.2706 46.125L66.25 59.2597ZM59.375 42C56.9275 42 54.5349 41.2742 52.4998 39.9144C50.4648 38.5547 48.8786 36.6219 47.942 34.3607C47.0054 32.0995 46.7603 29.6113 47.2378 27.2108C47.7153 24.8102 48.8939 22.6052 50.6246 20.8746C52.3552 19.1439 54.5602 17.9653 56.9608 17.4878C59.3613 17.0103 61.8495 17.2554 64.1107 18.192C66.3719 19.1286 68.3047 20.7148 69.6644 22.7498C71.0242 24.7849 71.75 27.1775 71.75 29.625C71.75 31.2501 71.4299 32.8593 70.808 34.3607C70.1861 35.8621 69.2746 37.2263 68.1255 38.3754C66.9763 39.5246 65.6121 40.4361 64.1107 41.058C62.6093 41.6799 61.0001 42 59.375 42Z" fill="#012F5B"/>
</svg>
