<svg width="68" height="68" viewBox="0 0 68 68" fill="none" xmlns="http://www.w3.org/2000/svg">
<circle cx="34" cy="34" r="34" fill="#57BEEA" fill-opacity="0.1"/>
<path d="M8 34C8 19.6406 19.6406 8 34 8C48.3594 8 60 19.6406 60 34C60 48.3594 48.3594 60 34 60C19.6406 60 8 48.3594 8 34Z" fill="white"/>
<path d="M32.1816 33.0909C32.1816 33.4505 32.075 33.802 31.8752 34.101C31.6754 34.4 31.3915 34.6331 31.0592 34.7707C30.727 34.9083 30.3614 34.9443 30.0087 34.8742C29.6561 34.804 29.3321 34.6308 29.0778 34.3766C28.8235 34.1223 28.6504 33.7983 28.5802 33.4456C28.5101 33.0929 28.5461 32.7274 28.6837 32.3951C28.8213 32.0629 29.0543 31.7789 29.3533 31.5791C29.6523 31.3794 30.0039 31.2727 30.3635 31.2727C30.8457 31.2727 31.3081 31.4643 31.6491 31.8053C31.9901 32.1462 32.1816 32.6087 32.1816 33.0909ZM45.818 25.8182V42.1818C45.818 42.664 45.6264 43.1265 45.2855 43.4675C44.9445 43.8084 44.482 44 43.9998 44H23.9998C23.5176 44 23.0551 43.8084 22.7142 43.4675C22.3732 43.1265 22.1816 42.664 22.1816 42.1818V25.8182C22.1816 25.336 22.3732 24.8735 22.7142 24.5325C23.0551 24.1916 23.5176 24 23.9998 24H43.9998C44.482 24 44.9445 24.1916 45.2855 24.5325C45.6264 24.8735 45.818 25.336 45.818 25.8182ZM34.8805 38.3182C34.5863 37.2198 33.8888 36.2727 32.9271 35.6659C33.4378 35.1582 33.7863 34.5103 33.9284 33.8043C34.0704 33.0984 33.9997 32.3661 33.7251 31.7004C33.4505 31.0347 32.9844 30.4655 32.386 30.065C31.7875 29.6644 31.0836 29.4506 30.3635 29.4506C29.6433 29.4506 28.9394 29.6644 28.341 30.065C27.7425 30.4655 27.2764 31.0347 27.0018 31.7004C26.7272 32.3661 26.6565 33.0984 26.7986 33.8043C26.9406 34.5103 27.2891 35.1582 27.7998 35.6659C26.8387 36.2734 26.1414 37.2202 25.8464 38.3182C25.7861 38.5518 25.8211 38.7997 25.9437 39.0075C26.0662 39.2153 26.2663 39.3659 26.4998 39.4261C26.7334 39.4864 26.9813 39.4514 27.1891 39.3289C27.3969 39.2064 27.5475 39.0063 27.6078 38.7727C27.9078 37.608 29.0919 36.7273 30.3635 36.7273C31.635 36.7273 32.8203 37.6057 33.1191 38.7727C33.1794 39.0063 33.33 39.2064 33.5378 39.3289C33.7456 39.4514 33.9935 39.4864 34.2271 39.4261C34.4607 39.3659 34.6607 39.2153 34.7833 39.0075C34.9058 38.7997 34.9408 38.5518 34.8805 38.3182ZM42.1816 35.8182C42.1816 35.5771 42.0859 35.3458 41.9154 35.1754C41.7449 35.0049 41.5137 34.9091 41.2726 34.9091H36.7271C36.486 34.9091 36.2548 35.0049 36.0843 35.1754C35.9138 35.3458 35.818 35.5771 35.818 35.8182C35.818 36.0593 35.9138 36.2905 36.0843 36.461C36.2548 36.6315 36.486 36.7273 36.7271 36.7273H41.2726C41.5137 36.7273 41.7449 36.6315 41.9154 36.461C42.0859 36.2905 42.1816 36.0593 42.1816 35.8182ZM42.1816 32.1818C42.1816 31.9407 42.0859 31.7095 41.9154 31.539C41.7449 31.3685 41.5137 31.2727 41.2726 31.2727H36.7271C36.486 31.2727 36.2548 31.3685 36.0843 31.539C35.9138 31.7095 35.818 31.9407 35.818 32.1818C35.818 32.4229 35.9138 32.6542 36.0843 32.8246C36.2548 32.9951 36.486 33.0909 36.7271 33.0909H41.2726C41.5137 33.0909 41.7449 32.9951 41.9154 32.8246C42.0859 32.6542 42.1816 32.4229 42.1816 32.1818Z" fill="#012F5B"/>
</svg>
