<svg width="91" height="90" viewBox="0 0 91 90" fill="none" xmlns="http://www.w3.org/2000/svg">
<rect x="0.5" width="90" height="90" rx="20" fill="#57BEEA"/>
<path d="M36 47H34C33.7348 47 33.4804 47.1054 33.2929 47.2929C33.1054 47.4804 33 47.7348 33 48V55C33 55.2652 33.1054 55.5196 33.2929 55.7071C33.4804 55.8946 33.7348 56 34 56H36C37.1935 56 38.3381 55.5259 39.182 54.682C40.0259 53.8381 40.5 52.6935 40.5 51.5C40.5 50.3065 40.0259 49.1619 39.182 48.318C38.3381 47.4741 37.1935 47 36 47ZM36 54H35V49H36C36.663 49 37.2989 49.2634 37.7678 49.7322C38.2366 50.2011 38.5 50.837 38.5 51.5C38.5 52.163 38.2366 52.7989 37.7678 53.2678C37.2989 53.7366 36.663 54 36 54ZM57.1912 53.3862C57.3828 53.5696 57.4938 53.8215 57.4996 54.0867C57.5055 54.3518 57.4058 54.6084 57.2225 54.8C56.8743 55.1748 56.4532 55.4746 55.9851 55.6809C55.5169 55.8873 55.0116 55.9959 54.5 56C52.2938 56 50.5 53.9813 50.5 51.5C50.5 49.0187 52.2938 47 54.5 47C55.0116 47.0041 55.5169 47.1127 55.9851 47.3191C56.4532 47.5254 56.8743 47.8252 57.2225 48.2C57.4018 48.3924 57.4982 48.6476 57.4907 48.9105C57.4831 49.1733 57.3724 49.4227 57.1824 49.6045C56.9924 49.7863 56.7384 49.8859 56.4754 49.8818C56.2125 49.8777 55.9617 49.7702 55.7775 49.5825C55.6152 49.4039 55.4182 49.2601 55.1986 49.16C54.979 49.0598 54.7413 49.0054 54.5 49C53.3975 49 52.5 50.125 52.5 51.5C52.5 52.875 53.3975 54 54.5 54C54.7413 53.9946 54.979 53.9402 55.1986 53.84C55.4182 53.7399 55.6152 53.5961 55.7775 53.4175C55.9608 53.2259 56.2128 53.115 56.4779 53.1091C56.743 53.1033 56.9996 53.2029 57.1912 53.3862ZM45.5 47C43.2937 47 41.5 49.0187 41.5 51.5C41.5 53.9813 43.2937 56 45.5 56C47.7063 56 49.5 53.9813 49.5 51.5C49.5 49.0187 47.7063 47 45.5 47ZM45.5 54C44.3975 54 43.5 52.875 43.5 51.5C43.5 50.125 44.3975 49 45.5 49C46.6025 49 47.5 50.125 47.5 51.5C47.5 52.875 46.6025 54 45.5 54ZM35.5 44C35.7652 44 36.0196 43.8946 36.2071 43.7071C36.3946 43.5196 36.5 43.2652 36.5 43V34H47.5V40C47.5 40.2652 47.6054 40.5196 47.7929 40.7071C47.9804 40.8946 48.2348 41 48.5 41H54.5V43C54.5 43.2652 54.6054 43.5196 54.7929 43.7071C54.9804 43.8946 55.2348 44 55.5 44C55.7652 44 56.0196 43.8946 56.2071 43.7071C56.3946 43.5196 56.5 43.2652 56.5 43V40C56.5001 39.8686 56.4743 39.7385 56.4241 39.6172C56.3739 39.4958 56.3003 39.3854 56.2075 39.2925L49.2075 32.2925C49.1146 32.1997 49.0042 32.1261 48.8829 32.0759C48.7615 32.0257 48.6314 31.9999 48.5 32H36.5C35.9696 32 35.4609 32.2107 35.0858 32.5858C34.7107 32.9609 34.5 33.4696 34.5 34V43C34.5 43.2652 34.6054 43.5196 34.7929 43.7071C34.9804 43.8946 35.2348 44 35.5 44ZM49.5 35.4138L53.0863 39H49.5V35.4138Z" fill="#FCFCFC"/>
</svg>
