<svg width="130" height="42" viewBox="0 0 130 42" fill="none" xmlns="http://www.w3.org/2000/svg">
<g clip-path="url(#clip0_438_1189)">
<path d="M49.5474 42.2119V-0.163474" stroke="#F3F2EE"/>
<path d="M11.5029 7.5957C10.6549 7.64636 10.0435 7.74998 9.67101 7.90886C9.30288 8.06313 9.0487 8.36478 8.90846 8.81149C8.77261 9.25359 8.70687 9.96971 8.70687 10.9575V30.3733C8.70687 31.3681 8.77261 32.0865 8.90846 32.5286C9.0487 32.9707 9.30288 33.2723 9.67101 33.4312C10.0435 33.5855 10.6549 33.6891 11.5029 33.7444V34.5273C10.1575 34.449 8.28178 34.4075 5.87583 34.4075C3.2157 34.4075 1.25676 34.449 -0.00537109 34.5273V33.7444C0.811949 33.6891 1.41453 33.5855 1.80018 33.4312C2.18584 33.2723 2.4444 32.9707 2.58025 32.5286C2.71392 32.0865 2.78185 31.3681 2.78185 30.3733V10.9575C2.78185 9.96971 2.71392 9.25359 2.58025 8.81149C2.4444 8.36478 2.18584 8.06313 1.80018 7.90886C1.41453 7.74998 0.811949 7.64636 -0.00537109 7.5957V6.81281C1.25676 6.8934 3.2157 6.93254 5.87583 6.93254C8.28178 6.93254 10.1575 6.8934 11.5029 6.81281V7.5957Z" fill="#F3F2EE"/>
<path d="M24.392 6.81281C29.2346 6.81281 32.861 7.96873 35.2692 10.276C37.6751 12.5855 38.8803 15.945 38.8803 20.3523C38.8803 23.2029 38.2887 25.6898 37.1098 27.8128C35.9287 29.9381 34.2283 31.5891 32.0087 32.7681C29.7868 33.9424 27.1376 34.5273 24.059 34.5273L21.745 34.4904C20.3076 34.4352 19.2646 34.4075 18.616 34.4075C16.0567 34.4075 14.1459 34.449 12.8838 34.5273V33.7444C13.7011 33.6891 14.3037 33.5855 14.6893 33.4312C15.075 33.2723 15.3336 32.9707 15.4694 32.5286C15.6031 32.0865 15.671 31.3681 15.671 30.3733V10.9575C15.671 9.96971 15.6031 9.25359 15.4694 8.81149C15.3336 8.36478 15.075 8.06313 14.6893 7.90886C14.3037 7.74998 13.7011 7.64636 12.8838 7.5957V6.81281C13.9224 6.8934 15.4256 6.93254 17.3889 6.93254H18.5459L20.0359 6.88649C22.0693 6.83813 23.5199 6.81281 24.392 6.81281ZM24.357 7.51281C23.5857 7.51281 23.0072 7.60491 22.6215 7.78912C22.2359 7.97333 21.9663 8.30261 21.8152 8.77465C21.6683 9.24208 21.596 9.94438 21.596 10.8839V30.4562C21.596 31.3957 21.6683 32.1026 21.8152 32.5746C21.9663 33.0421 22.2359 33.3668 22.6215 33.551C23.0072 33.7306 23.5966 33.8181 24.392 33.8181C27.394 33.8181 29.5304 32.7174 30.7991 30.5115C32.0656 28.3079 32.7011 24.9737 32.7011 20.5089C32.7011 16.051 32.0459 12.772 30.7378 10.672C29.434 8.56741 27.3063 7.51281 24.357 7.51281Z" fill="#F3F2EE"/>
<path d="M61.7318 11.3865C61.4733 11.4003 61.287 11.4302 61.1709 11.4786C61.0591 11.5223 60.9802 11.6052 60.9342 11.7272C60.8926 11.8516 60.8729 12.0542 60.8729 12.3351V17.8338C60.8729 18.117 60.8926 18.322 60.9342 18.4509C60.9802 18.5753 61.0591 18.6605 61.1709 18.7088C61.287 18.7526 61.4733 18.7802 61.7318 18.7917V19.0128C61.4031 18.9897 60.9561 18.9759 60.3908 18.9759C59.7816 18.9759 59.3324 18.9897 59.041 19.0128V18.7917C59.2908 18.7802 59.4749 18.7526 59.5932 18.7088C59.7093 18.6605 59.7882 18.5753 59.8299 18.4509C59.8693 18.322 59.8912 18.117 59.8912 17.8338V12.3351C59.8912 12.0542 59.8693 11.8516 59.8299 11.7272C59.7882 11.6052 59.7093 11.5223 59.5932 11.4786C59.4749 11.4302 59.2908 11.4003 59.041 11.3865V11.1654C59.3324 11.1838 59.7816 11.193 60.3908 11.193C60.9517 11.193 61.3988 11.1838 61.7318 11.1654V11.3865Z" fill="#F3F2EE"/>
<path d="M70.918 11.3865C70.666 11.4003 70.4819 11.4302 70.3658 11.4786C70.2475 11.5223 70.1686 11.6052 70.1291 11.7272C70.0875 11.8516 70.0678 12.0542 70.0678 12.3351V17.8338C70.0678 18.1171 70.0875 18.322 70.1291 18.4509C70.1686 18.5753 70.2475 18.6605 70.3658 18.7088C70.4819 18.7526 70.666 18.7802 70.918 18.7917V19.0128C70.5959 18.9897 70.1489 18.9759 69.577 18.9759C68.9744 18.9759 68.5252 18.9897 68.2272 19.0128V18.7917C68.477 18.7802 68.661 18.7526 68.7794 18.7088C68.8955 18.6605 68.9744 18.5753 69.016 18.4509C69.062 18.322 69.0861 18.1171 69.0861 17.8338V11.893L66.5356 19.068H66.369L63.7133 11.8746V17.7233C63.7133 18.0134 63.733 18.2276 63.7746 18.368C63.8206 18.5108 63.9105 18.6144 64.0463 18.6812C64.18 18.7434 64.3882 18.7802 64.6686 18.7917V19.0128C64.4167 18.9897 64.0595 18.9759 63.5993 18.9759C63.1721 18.9759 62.8456 18.9897 62.6177 19.0128V18.7917C62.8631 18.7802 63.0428 18.7434 63.1611 18.6812C63.2838 18.6144 63.3649 18.5108 63.4065 18.368C63.446 18.2207 63.4679 18.0065 63.4679 17.7233V12.3351C63.4679 12.0542 63.446 11.8516 63.4065 11.7272C63.3649 11.6052 63.286 11.5223 63.1699 11.4786C63.0515 11.4302 62.8675 11.4003 62.6177 11.3865V11.1654C62.8456 11.1838 63.1721 11.193 63.5993 11.193C63.9609 11.193 64.2589 11.1838 64.4934 11.1654L66.816 17.5851L69.0861 11.193H69.577C70.1489 11.193 70.5959 11.1838 70.918 11.1654V11.3865Z" fill="#F3F2EE"/>
<path d="M80.1074 11.3865C79.8554 11.4003 79.6714 11.4302 79.5552 11.4786C79.4369 11.5223 79.358 11.6052 79.3186 11.7272C79.277 11.8516 79.2572 12.0542 79.2572 12.3351V17.8338C79.2572 18.1171 79.277 18.322 79.3186 18.4509C79.358 18.5753 79.4369 18.6605 79.5552 18.7088C79.6714 18.7526 79.8554 18.7802 80.1074 18.7917V19.0128C79.7853 18.9897 79.3383 18.9759 78.7664 18.9759C78.1638 18.9759 77.7146 18.9897 77.4166 19.0128V18.7917C77.6664 18.7802 77.8505 18.7526 77.9688 18.7088C78.0849 18.6605 78.1638 18.5753 78.2055 18.4509C78.2515 18.322 78.2756 18.1171 78.2756 17.8338V11.893L75.725 19.068H75.5585L72.9027 11.8746V17.7233C72.9027 18.0134 72.9225 18.2276 72.9641 18.368C73.0101 18.5108 73.0999 18.6144 73.2358 18.6812C73.3695 18.7434 73.5776 18.7802 73.8581 18.7917V19.0128C73.6061 18.9897 73.2489 18.9759 72.7888 18.9759C72.3615 18.9759 72.035 18.9897 71.8071 19.0128V18.7917C72.0525 18.7802 72.2322 18.7434 72.3505 18.6812C72.4733 18.6144 72.5543 18.5108 72.596 18.368C72.6354 18.2207 72.6573 18.0065 72.6573 17.7233V12.3351C72.6573 12.0542 72.6354 11.8516 72.596 11.7272C72.5543 11.6052 72.4754 11.5223 72.3593 11.4786C72.241 11.4302 72.0569 11.4003 71.8071 11.3865V11.1654C72.035 11.1838 72.3615 11.193 72.7888 11.193C73.1503 11.193 73.4483 11.1838 73.6828 11.1654L76.0055 17.5851L78.2756 11.193H78.7664C79.3383 11.193 79.7853 11.1838 80.1074 11.1654V11.3865Z" fill="#F3F2EE"/>
<path d="M83.6879 11.3865C83.4293 11.4003 83.2431 11.4302 83.1269 11.4786C83.0152 11.5223 82.9363 11.6052 82.8903 11.7272C82.8486 11.8516 82.8289 12.0542 82.8289 12.3351V17.8338C82.8289 18.117 82.8486 18.322 82.8903 18.4509C82.9363 18.5753 83.0152 18.6605 83.1269 18.7088C83.2431 18.7526 83.4293 18.7802 83.6879 18.7917V19.0128C83.3592 18.9897 82.9122 18.9759 82.3469 18.9759C81.7377 18.9759 81.2885 18.9897 80.9971 19.0128V18.7917C81.2469 18.7802 81.4309 18.7526 81.5493 18.7088C81.6654 18.6605 81.7443 18.5753 81.7859 18.4509C81.8253 18.322 81.8473 18.117 81.8473 17.8338V12.3351C81.8473 12.0542 81.8253 11.8516 81.7859 11.7272C81.7443 11.6052 81.6654 11.5223 81.5493 11.4786C81.4309 11.4302 81.2469 11.4003 80.9971 11.3865V11.1654C81.2885 11.1838 81.7377 11.193 82.3469 11.193C82.9078 11.193 83.3548 11.1838 83.6879 11.1654V11.3865Z" fill="#F3F2EE"/>
<path d="M88.097 11.0089C88.5112 11.0089 88.8508 11.071 89.1138 11.1931C89.3811 11.3105 89.6747 11.4878 89.9902 11.7273C90.0823 11.801 90.1568 11.8378 90.2094 11.8378C90.3365 11.8378 90.4241 11.6144 90.4723 11.1654H90.709C90.6783 11.6444 90.6651 12.4917 90.6651 13.7075H90.4285C90.3628 13.3207 90.297 13.0029 90.2269 12.7496C90.1568 12.4917 90.0472 12.2661 89.9026 12.0681C89.6966 11.8056 89.4315 11.596 89.105 11.4417C88.7763 11.2829 88.4323 11.2023 88.0707 11.2023C87.6084 11.2023 87.1986 11.3635 86.8437 11.6812C86.4931 12.0013 86.2214 12.4549 86.0285 13.0444C85.8401 13.6292 85.7481 14.3131 85.7481 15.0983C85.7481 16.4315 85.9497 17.4079 86.3528 18.0273C86.7604 18.6421 87.398 18.9483 88.2636 18.9483C88.6843 18.9483 89.048 18.8332 89.3592 18.5983C89.4863 18.5131 89.5695 18.4279 89.6046 18.3404C89.644 18.2552 89.6659 18.1378 89.6659 17.9904V16.9312C89.6659 16.6181 89.6353 16.3924 89.5783 16.2496C89.5257 16.1092 89.4293 16.0148 89.2891 15.9641C89.1488 15.9088 88.9166 15.8766 88.5966 15.8628V15.6417C88.9648 15.6671 89.46 15.6786 90.0867 15.6786C90.5643 15.6786 90.9303 15.6671 91.1823 15.6417V15.8628C91.0245 15.8766 90.9062 15.9065 90.8317 15.9549C90.755 15.9987 90.7046 16.0838 90.6827 16.2128C90.6586 16.3371 90.6476 16.5398 90.6476 16.8207V19.0128H90.4373C90.4307 18.8654 90.4022 18.725 90.3496 18.5891C90.3014 18.4487 90.2357 18.3773 90.148 18.3773C90.1064 18.3773 90.0647 18.3911 90.0253 18.4141C89.9837 18.4394 89.9114 18.4924 89.8062 18.5707C89.5608 18.7687 89.3022 18.9161 89.0349 19.0128C88.7719 19.1164 88.4783 19.1694 88.1584 19.1694C87.4331 19.1694 86.8108 19.0128 86.2915 18.6996C85.7766 18.3865 85.3821 17.9352 85.1082 17.3457C84.8321 16.7516 84.6963 16.0424 84.6963 15.2181C84.6963 14.3776 84.8409 13.6385 85.1345 12.9983C85.426 12.3605 85.8291 11.87 86.3441 11.5246C86.8568 11.1815 87.4419 11.0089 88.097 11.0089Z" fill="#F3F2EE"/>
<path d="M98.5118 18.4601C98.3474 18.7134 98.1831 18.893 98.0209 19.0036C97.8632 19.1141 97.6484 19.1694 97.3811 19.1694C97.0875 19.1694 96.8486 19.0796 96.6624 18.9022C96.4805 18.7249 96.3425 18.4141 96.2504 17.972L96.0138 16.8575C95.9305 16.4776 95.8516 16.1828 95.7771 15.9733C95.707 15.7661 95.5953 15.6003 95.4441 15.4759C95.2973 15.347 95.0891 15.2825 94.8218 15.2825H93.8226V17.8338C93.8226 18.1171 93.8423 18.322 93.8839 18.4509C93.9299 18.5753 94.0088 18.6605 94.1206 18.7088C94.2367 18.7526 94.423 18.7802 94.6815 18.7917V19.0128C94.3528 18.9897 93.9058 18.9759 93.3405 18.9759C92.7314 18.9759 92.2822 18.9897 91.9907 19.0128V18.7917C92.2405 18.7802 92.4246 18.7526 92.5429 18.7088C92.659 18.6605 92.7379 18.5753 92.7796 18.4509C92.819 18.322 92.8409 18.1171 92.8409 17.8338V12.3351C92.8409 12.0542 92.819 11.8516 92.7796 11.7272C92.7379 11.6052 92.659 11.5223 92.5429 11.4786C92.4246 11.4302 92.2405 11.4003 91.9907 11.3865V11.1654C92.2822 11.1838 92.7094 11.193 93.2704 11.193L94.4098 11.1838C94.5435 11.1792 94.6947 11.1746 94.8656 11.1746C95.6829 11.1746 96.3118 11.3565 96.75 11.718C97.1883 12.0749 97.4074 12.5355 97.4074 13.0996C97.4074 13.3897 97.3417 13.6799 97.2146 13.9746C97.0853 14.2647 96.8662 14.5249 96.5572 14.7575C96.2526 14.9924 95.856 15.149 95.3652 15.2272L95.4879 15.2549C95.9546 15.3355 96.2943 15.4828 96.5046 15.697C96.715 15.9134 96.8684 16.2542 96.9691 16.7194L97.2321 17.8522C97.3022 18.1907 97.3745 18.4279 97.4512 18.5615C97.5257 18.6904 97.6309 18.7549 97.7667 18.7549C97.8895 18.7549 97.9903 18.7249 98.0735 18.6628C98.1546 18.596 98.2488 18.4878 98.354 18.3404L98.5118 18.4601ZM94.6026 11.3865C94.3857 11.3865 94.2214 11.4141 94.1118 11.4694C94.0066 11.52 93.9299 11.6121 93.8839 11.7457C93.8423 11.8746 93.8226 12.0726 93.8226 12.3351V15.0615H94.5325C95.2271 15.0615 95.7026 14.9003 95.9612 14.5733C96.2241 14.2486 96.3556 13.7996 96.3556 13.2286C96.3556 12.6207 96.2176 12.1647 95.9437 11.8562C95.6676 11.543 95.2206 11.3865 94.6026 11.3865Z" fill="#F3F2EE"/>
<path d="M104.367 18.0825C104.536 18.5431 104.779 18.7802 105.095 18.7917V19.0128C104.814 18.9898 104.437 18.976 103.964 18.976C103.355 18.976 102.906 18.9898 102.614 19.0128V18.7917C102.881 18.7802 103.072 18.7457 103.184 18.6904C103.3 18.6306 103.359 18.5246 103.359 18.3773C103.359 18.2552 103.317 18.0825 103.236 17.8615L102.588 16.0378H100.037L99.6077 17.2167C99.4675 17.6174 99.3974 17.9214 99.3974 18.1286C99.3974 18.3566 99.4697 18.5223 99.6165 18.626C99.7677 18.7319 99.9978 18.7871 100.309 18.7917V19.0128C99.9101 18.9898 99.5069 18.976 99.0994 18.976C98.7838 18.976 98.5209 18.9898 98.3105 19.0128V18.7917C98.6611 18.6996 98.9372 18.3773 99.1432 17.8246L101.624 11.1102H101.79L104.367 18.0825ZM102.509 15.8167L101.326 12.501L100.125 15.8167H102.509Z" fill="#F3F2EE"/>
<path d="M111.277 11.1654C111.224 11.6881 111.198 12.1601 111.198 12.5838C111.198 12.9522 111.209 13.2539 111.233 13.4865H110.987C110.935 12.9223 110.865 12.5009 110.777 12.2246C110.694 11.9437 110.545 11.7365 110.33 11.6075C110.12 11.4786 109.797 11.4141 109.366 11.4141H108.796V17.7233C108.796 18.0365 108.822 18.2644 108.875 18.4049C108.932 18.5476 109.033 18.6444 109.173 18.6996C109.313 18.7503 109.541 18.7802 109.857 18.7917V19.0128C109.493 18.9897 108.976 18.9759 108.305 18.9759C107.604 18.9759 107.083 18.9897 106.745 19.0128V18.7917C107.061 18.7802 107.289 18.7503 107.429 18.6996C107.573 18.6444 107.674 18.5476 107.727 18.4049C107.784 18.2644 107.814 18.0365 107.814 17.7233V11.4141H107.245C106.806 11.4141 106.482 11.4786 106.272 11.6075C106.061 11.7365 105.912 11.9437 105.825 12.2246C105.742 12.5009 105.671 12.9223 105.614 13.4865H105.378C105.395 13.2539 105.404 12.9522 105.404 12.5838C105.404 12.1601 105.38 11.6881 105.334 11.1654C105.917 11.1838 106.907 11.193 108.305 11.193C109.701 11.193 110.691 11.1838 111.277 11.1654Z" fill="#F3F2EE"/>
<path d="M114.717 11.3865C114.459 11.4003 114.272 11.4302 114.156 11.4786C114.044 11.5223 113.966 11.6052 113.92 11.7272C113.878 11.8516 113.858 12.0542 113.858 12.3351V17.8338C113.858 18.117 113.878 18.322 113.92 18.4509C113.966 18.5753 114.044 18.6605 114.156 18.7088C114.272 18.7526 114.459 18.7802 114.717 18.7917V19.0128C114.388 18.9897 113.941 18.9759 113.376 18.9759C112.767 18.9759 112.318 18.9897 112.026 19.0128V18.7917C112.276 18.7802 112.46 18.7526 112.579 18.7088C112.695 18.6605 112.774 18.5753 112.815 18.4509C112.855 18.322 112.877 18.117 112.877 17.8338V12.3351C112.877 12.0542 112.855 11.8516 112.815 11.7272C112.774 11.6052 112.695 11.5223 112.579 11.4786C112.46 11.4302 112.276 11.4003 112.026 11.3865V11.1654C112.318 11.1838 112.767 11.193 113.376 11.193C113.937 11.193 114.384 11.1838 114.717 11.1654V11.3865Z" fill="#F3F2EE"/>
<path d="M119.074 11.0089C119.74 11.0089 120.323 11.17 120.827 11.4878C121.328 11.801 121.716 12.2615 121.992 12.8694C122.273 13.4727 122.413 14.1911 122.413 15.0246C122.413 15.8352 122.269 16.5582 121.984 17.1891C121.703 17.8154 121.304 18.3036 120.792 18.6536C120.283 18.999 119.705 19.1694 119.056 19.1694C118.39 19.1694 117.805 19.0105 117.303 18.6904C116.799 18.3727 116.409 17.9121 116.129 17.3088C115.853 16.7079 115.717 15.9894 115.717 15.1536C115.717 14.3431 115.857 13.6246 116.138 12.9983C116.422 12.3674 116.821 11.8792 117.33 11.5339C117.842 11.1839 118.425 11.0089 119.074 11.0089ZM119.03 11.2023C118.579 11.2023 118.182 11.3681 117.838 11.6996C117.498 12.0312 117.235 12.4917 117.049 13.0812C116.861 13.6707 116.769 14.3477 116.769 15.1075C116.769 15.8766 116.869 16.5536 117.075 17.1431C117.286 17.7279 117.566 18.1792 117.917 18.497C118.272 18.8102 118.666 18.9667 119.1 18.9667C119.549 18.9667 119.944 18.8056 120.283 18.4786C120.627 18.147 120.892 17.6865 121.081 17.097C121.267 16.5029 121.361 15.8237 121.361 15.0615C121.361 14.2947 121.256 13.62 121.046 13.0352C120.84 12.4526 120.564 12.0013 120.213 11.6812C119.863 11.3635 119.468 11.2023 119.03 11.2023Z" fill="#F3F2EE"/>
<path d="M130.047 11.3865C129.802 11.4003 129.618 11.4394 129.495 11.5062C129.377 11.5684 129.296 11.6697 129.25 11.8101C129.208 11.9529 129.188 12.1647 129.188 12.4457V19.068H128.943L124.517 11.8746V17.7233C124.517 18.0134 124.536 18.2276 124.578 18.368C124.624 18.5108 124.714 18.6144 124.85 18.6812C124.983 18.7434 125.191 18.7802 125.472 18.7917V19.0128C125.22 18.9897 124.863 18.9759 124.403 18.9759C123.975 18.9759 123.649 18.9897 123.421 19.0128V18.7917C123.666 18.7802 123.846 18.7434 123.964 18.6812C124.087 18.6144 124.168 18.5108 124.21 18.368C124.249 18.2207 124.271 18.0065 124.271 17.7233V12.3351C124.271 12.0542 124.249 11.8516 124.21 11.7272C124.168 11.6052 124.089 11.5223 123.973 11.4786C123.855 11.4302 123.671 11.4003 123.421 11.3865V11.1654C123.649 11.1838 123.975 11.193 124.403 11.193C124.718 11.193 124.99 11.1838 125.218 11.1654L128.943 17.1983V12.4457C128.943 12.1578 128.919 11.946 128.873 11.8101C128.831 11.6697 128.743 11.5684 128.61 11.5062C128.474 11.4394 128.268 11.4003 127.987 11.3865V11.1654C128.237 11.1838 128.597 11.193 129.065 11.193C129.486 11.193 129.813 11.1838 130.047 11.1654V11.3865Z" fill="#F3F2EE"/>
<path d="M61.9159 23.5444C63.1605 23.5444 64.0918 23.8736 64.7119 24.5299C65.3298 25.1815 65.6409 26.1302 65.6409 27.376C65.6409 28.1819 65.4876 28.8865 65.1852 29.4944C64.8872 30.1023 64.4489 30.572 63.8704 30.9036C63.2963 31.2306 62.6127 31.3917 61.8195 31.3917L61.2147 31.3825C60.8159 31.3641 60.5267 31.3549 60.347 31.3549C59.7685 31.3549 59.3324 31.3687 59.041 31.3917V31.1707C59.2908 31.1592 59.4749 31.1315 59.5932 31.0878C59.7093 31.0394 59.7882 30.9542 59.8299 30.8299C59.8693 30.701 59.8912 30.496 59.8912 30.2128V24.7141C59.8912 24.4332 59.8693 24.2306 59.8299 24.1062C59.7882 23.9842 59.7093 23.9013 59.5932 23.8575C59.4749 23.8092 59.2908 23.7792 59.041 23.7654V23.5444C59.2864 23.5628 59.6239 23.572 60.0577 23.572L60.9605 23.5628C61.4382 23.5513 61.7581 23.5444 61.9159 23.5444ZM61.6529 23.7378C61.436 23.7378 61.2717 23.7654 61.1621 23.8207C61.0569 23.8713 60.9802 23.9635 60.9342 24.097C60.8926 24.226 60.8729 24.4263 60.8729 24.6957V30.2404C60.8729 30.5052 60.8926 30.7056 60.9342 30.8391C60.9802 30.9681 61.0569 31.0602 61.1621 31.1154C61.2717 31.1661 61.4382 31.1891 61.6617 31.1891C62.4089 31.1891 62.9961 31.0486 63.4234 30.7654C63.8551 30.4845 64.1553 30.07 64.3262 29.522C64.5015 28.9694 64.5892 28.2694 64.5892 27.422C64.5892 26.5746 64.4927 25.8838 64.2999 25.3496C64.1115 24.8108 63.8047 24.4079 63.3796 24.1431C62.9523 23.8736 62.376 23.7378 61.6529 23.7378Z" fill="#F3F2EE"/>
<path d="M70.1401 23.3878C70.8063 23.3878 71.3891 23.549 71.8931 23.8668C72.3949 24.1799 72.7827 24.6404 73.0588 25.2483C73.3393 25.8516 73.4795 26.5701 73.4795 27.4036C73.4795 28.2141 73.3349 28.9372 73.0501 29.5681C72.7696 30.1944 72.3708 30.6826 71.858 31.0326C71.3497 31.3779 70.7712 31.5483 70.1226 31.5483C69.4565 31.5483 68.8714 31.3895 68.3696 31.0694C67.8657 30.7516 67.4756 30.2911 67.1952 29.6878C66.9191 29.0868 66.7832 28.3684 66.7832 27.5326C66.7832 26.722 66.9234 26.0036 67.2039 25.3773C67.4888 24.7464 67.8876 24.2582 68.3959 23.9128C68.9087 23.5628 69.4915 23.3878 70.1401 23.3878ZM70.0963 23.5812C69.6449 23.5812 69.2483 23.747 68.9043 24.0786C68.5647 24.4102 68.3017 24.8707 68.1155 25.4602C67.927 26.0497 67.835 26.7266 67.835 27.4865C67.835 28.2556 67.9358 28.9326 68.1418 29.522C68.3521 30.1069 68.6326 30.5582 68.9832 30.876C69.3382 31.1891 69.7326 31.3457 70.1664 31.3457C70.6156 31.3457 71.01 31.1845 71.3497 30.8576C71.6937 30.526 71.9588 30.0654 72.1473 29.476C72.3335 28.8819 72.4278 28.2026 72.4278 27.4404C72.4278 26.6737 72.3226 25.999 72.1122 25.4141C71.9062 24.8316 71.6302 24.3803 71.2796 24.0602C70.929 23.7424 70.5346 23.5812 70.0963 23.5812Z" fill="#F3F2EE"/>
<path d="M77.958 23.3878C78.3787 23.3878 78.7337 23.4523 79.0273 23.5812C79.3253 23.7056 79.6146 23.8806 79.895 24.1062C79.9695 24.1753 80.0375 24.2076 80.0966 24.2076C80.2369 24.2076 80.3267 23.9865 80.3683 23.5444H80.6137C80.5831 24.0233 80.5699 24.8707 80.5699 26.0865H80.3333C80.25 25.6076 80.1777 25.2645 80.1142 25.0549C80.055 24.8477 79.9498 24.6451 79.7986 24.447C79.5883 24.1592 79.3187 23.9451 78.9923 23.8023C78.6636 23.6549 78.3108 23.5812 77.9317 23.5812C77.4759 23.5812 77.0749 23.7424 76.7309 24.0602C76.3913 24.3803 76.1262 24.8339 75.9333 25.4233C75.7449 26.0082 75.6529 26.6944 75.6529 27.4865C75.6529 28.2924 75.7536 28.9832 75.9596 29.5589C76.1634 30.1368 76.4461 30.5766 76.8098 30.876C77.1714 31.1776 77.5811 31.3273 78.0369 31.3273C78.3919 31.3273 78.7337 31.2582 79.0624 31.1154C79.3954 30.975 79.654 30.7631 79.8424 30.4799C79.9827 30.2773 80.0835 30.0608 80.1492 29.826C80.2128 29.5865 80.2741 29.2227 80.3333 28.7299H80.5699C80.5699 30.001 80.5831 30.8898 80.6137 31.3918H80.3683C80.3508 31.1523 80.3201 30.9842 80.2807 30.8852C80.2456 30.7885 80.193 30.7378 80.1229 30.7378C80.0638 30.7378 79.9871 30.7701 79.895 30.8299C79.5795 31.0648 79.2749 31.2421 78.9835 31.3641C78.6964 31.4862 78.348 31.5483 77.9405 31.5483C77.2743 31.5483 76.6893 31.3895 76.1875 31.0694C75.6835 30.7516 75.2935 30.2911 75.013 29.6878C74.7369 29.0868 74.6011 28.3684 74.6011 27.5326C74.6011 26.722 74.7413 26.0036 75.0218 25.3773C75.3066 24.7464 75.7054 24.2582 76.2138 23.9128C76.7265 23.5628 77.3094 23.3878 77.958 23.3878Z" fill="#F3F2EE"/>
<path d="M83.9988 23.4155C84.3077 23.4155 84.5531 23.4523 84.735 23.526C84.9147 23.5951 85.0988 23.6964 85.2872 23.8299C85.445 23.9359 85.5633 23.9865 85.6466 23.9865C85.7101 23.9865 85.7605 23.9474 85.7956 23.8668C85.8306 23.7885 85.8591 23.6642 85.8832 23.4984H86.1199C86.0848 23.929 86.0673 24.6819 86.0673 25.7549H85.8306C85.7824 25.1609 85.6159 24.6566 85.331 24.2444C85.0506 23.8345 84.6386 23.6273 84.0952 23.6273C83.7139 23.6273 83.405 23.747 83.1661 23.9865C82.9251 24.226 82.8068 24.5368 82.8068 24.9168C82.8068 25.2 82.8681 25.4464 82.9908 25.6536C83.1135 25.8563 83.2669 26.0313 83.4554 26.1786C83.6482 26.326 83.9221 26.5171 84.2792 26.7497L84.5773 26.9431C85.0199 27.2332 85.3705 27.4865 85.629 27.7076C85.8854 27.924 86.0892 28.1727 86.2426 28.4536C86.4003 28.7368 86.4792 29.0661 86.4792 29.4392C86.4792 30.1161 86.2689 30.6365 85.8482 31.0049C85.4274 31.3688 84.8928 31.5484 84.2442 31.5484C83.9046 31.5484 83.6263 31.5115 83.4115 31.4378C83.2012 31.3642 82.9952 31.2628 82.798 31.1339C82.6402 31.0303 82.5197 30.9773 82.4386 30.9773C82.3729 30.9773 82.3247 31.0188 82.2896 31.097C82.2546 31.1776 82.2283 31.2997 82.2107 31.4655H81.9653C81.9938 31.0602 82.0092 30.1737 82.0092 28.8036H82.2458C82.2984 29.5543 82.4737 30.1622 82.7717 30.6273C83.0741 31.0947 83.5386 31.3273 84.1653 31.3273C84.551 31.3273 84.8753 31.2053 85.1382 30.9589C85.4055 30.7079 85.5414 30.3395 85.5414 29.8536C85.5414 29.4368 85.4099 29.0845 85.147 28.7944C84.884 28.5066 84.4655 28.1819 83.8936 27.8181C83.4773 27.5556 83.142 27.3207 82.8856 27.1181C82.6271 26.9109 82.4167 26.6576 82.2546 26.3628C82.0968 26.0681 82.0179 25.7273 82.0179 25.3405C82.0179 24.7142 82.2064 24.2398 82.5876 23.9128C82.9667 23.5813 83.4378 23.4155 83.9988 23.4155Z" fill="#F3F2EE"/>
<path d="M61.3805 40.4913H62.5988V40.9427H60.8984V37.9677H61.3805V40.4913Z" fill="#F3F2EE"/>
<path d="M65.9577 40.4913H67.176V40.9427H65.4756V37.9677H65.9577V40.4913Z" fill="#F3F2EE"/>
<path d="M71.306 37.9584C71.5032 37.9584 71.696 37.9999 71.8844 38.0782C72.0773 38.1588 72.2438 38.2716 72.384 38.419L72.1036 38.7782C72.0028 38.663 71.8844 38.5709 71.7442 38.5019C71.604 38.4351 71.4593 38.4005 71.3147 38.4005C71.0343 38.4005 70.7932 38.5019 70.596 38.7045C70.4032 38.9071 70.3068 39.1558 70.3068 39.4505C70.3068 39.7453 70.4032 39.994 70.596 40.1966C70.7932 40.3992 71.0343 40.5005 71.3147 40.5005C71.6062 40.5005 71.8691 40.3808 72.1036 40.1413L72.384 40.4729C72.2438 40.6272 72.0729 40.7469 71.8757 40.8321C71.6829 40.9196 71.4856 40.9611 71.2884 40.9611C70.8721 40.9611 70.5259 40.8183 70.2454 40.5282C69.9649 40.2403 69.8247 39.8811 69.8247 39.4505C69.8247 39.0338 69.9671 38.6815 70.2542 38.3913C70.539 38.1035 70.8896 37.9584 71.306 37.9584Z" fill="#F3F2EE"/>
</g>
<defs>
<clipPath id="clip0_438_1189">
<rect width="130" height="42" fill="white"/>
</clipPath>
</defs>
</svg>
