<svg width="257" height="244" viewBox="0 0 257 244" fill="none" xmlns="http://www.w3.org/2000/svg">
<rect opacity="0.5" x="67.4355" y="47.2075" width="189.565" height="37.0269" rx="18.5134" fill="#D8F3FF"/>
<rect opacity="0.5" x="67.4355" y="105.574" width="138.815" height="37.0269" rx="18.5134" fill="#D8F3FF"/>
<path fill-rule="evenodd" clip-rule="evenodd" d="M67.7479 30.6363C64.3274 26.7099 62.0124 21.8982 62.3992 16.5064C63.5138 0.971354 85.6273 4.38887 89.9288 12.2296C94.2303 20.0704 93.7192 39.9592 88.1598 41.3605C85.9428 41.9194 81.2198 40.5504 76.4129 37.717L79.4301 58.5914H61.6147L67.7479 30.6363Z" fill="#915B3C"/>
<path fill-rule="evenodd" clip-rule="evenodd" d="M66.3775 34.1337C64.1415 24.4056 57.7715 17.7743 58.7443 13.4262C59.3929 10.5275 61.1215 8.72489 63.9302 8.01839C65.3829 2.27153 70.0679 -0.172831 77.9853 0.685302C89.8614 1.9725 97.1099 6.79567 93.9797 17.4087C91.1022 17.4087 87.6285 16.3911 82.8251 18.1347C81.3009 18.6879 80.2109 20.4035 79.5548 23.2815H77.3841C75.2774 19.8661 73.2002 18.611 71.1525 19.5163C69.1047 20.4216 68.6392 22.6205 69.756 26.113L68.6868 34.1337H66.3775Z" fill="#191847"/>
<path fill-rule="evenodd" clip-rule="evenodd" d="M11.8769 149.332H97.2421C103.802 149.332 109.119 154.532 109.119 160.947V227.732C109.119 234.146 103.802 239.346 97.2421 239.346H11.8769C5.31747 239.346 0 234.146 0 227.732V160.947C0 154.532 5.31747 149.332 11.8769 149.332ZM23.7538 169.658C22.1139 169.658 20.7846 170.958 20.7846 172.562V216.117C20.7846 217.72 22.1139 219.021 23.7538 219.021H85.3652C87.005 219.021 88.3344 217.72 88.3344 216.117V172.562C88.3344 170.958 87.005 169.658 85.3652 169.658H23.7538Z" fill="#C5CFD6"/>
<path fill-rule="evenodd" clip-rule="evenodd" d="M182.723 235.716C168.088 218.239 158.186 205.282 153.016 196.846C144.164 182.401 136.919 169.547 134.633 164.637C129.18 152.928 147.184 147.446 151.259 152.907C157.426 161.173 170.596 187.183 190.771 230.938L182.723 235.716Z" fill="#B28B67"/>
<path fill-rule="evenodd" clip-rule="evenodd" d="M152.737 230.635L125.5 163.587C119.674 151.364 147.806 143.33 152.088 149.018C161.807 161.932 184.909 212.875 187.805 216.722L152.737 230.635Z" fill="#1D1D2A"/>
<path fill-rule="evenodd" clip-rule="evenodd" d="M80.1916 217.239C85.5067 209.666 104.834 184.184 115.354 173.635C118.377 170.604 121.326 167.694 124.115 164.983C132.407 156.923 148.846 170.399 140.572 177.742C119.966 196.028 89.9044 220.719 87.3925 222.92C83.8719 226.005 76.8512 221.998 80.1916 217.239Z" fill="#915B3C"/>
<path fill-rule="evenodd" clip-rule="evenodd" d="M81.4856 213.795C79.6486 215.282 78.4523 216.495 77.8967 217.434C77.2209 218.575 76.4275 220.35 75.5165 222.758C76.8587 223.514 88.9207 230.307 111.703 243.138C114.459 240.6 114.896 238.638 113.015 237.252C111.134 235.866 109.581 234.697 108.358 233.746L95.9188 216.873C95.6794 216.548 95.2152 216.478 94.8819 216.716C94.8762 216.72 94.8705 216.724 94.865 216.729L92.252 218.708C89.8654 218.515 88.0857 218.089 86.9131 217.428C85.9604 216.892 84.8695 215.771 83.6403 214.066L83.6403 214.066C83.1686 213.412 82.2417 213.262 81.5701 213.731C81.5412 213.752 81.513 213.773 81.4856 213.795Z" fill="#E4E4E4"/>
<path fill-rule="evenodd" clip-rule="evenodd" d="M176.43 233.105C175.599 235.273 175.184 236.895 175.184 237.971C175.184 239.28 175.407 241.19 175.853 243.702C177.406 243.702 191.362 243.702 217.72 243.702C218.808 240.184 218.18 238.285 215.836 238.005C213.492 237.724 211.545 237.471 209.995 237.245L190.535 228.761C190.161 228.598 189.722 228.763 189.555 229.129C189.552 229.135 189.549 229.141 189.546 229.148L188.296 232.115C186.126 233.105 184.362 233.6 183.006 233.6C181.903 233.6 180.381 233.165 178.439 232.294L178.439 232.294C177.693 231.96 176.812 232.28 176.47 233.009C176.456 233.04 176.442 233.072 176.43 233.105Z" fill="#E4E4E4"/>
<path fill-rule="evenodd" clip-rule="evenodd" d="M115.696 166.935C93.0581 163.329 77.8949 160.863 70.2064 159.537C48.2913 155.758 41.9006 144.225 45.6791 119.062H86.0574C91.4009 120.572 113.728 129.904 153.038 147.061C160.111 150.494 158.794 160.618 157.501 163.953C157.448 164.089 145.525 184.069 121.731 223.893L88.7 203.315L115.758 169.36C116.473 167.953 116.452 167.145 115.696 166.935Z" fill="#2A2A36"/>
<path fill-rule="evenodd" clip-rule="evenodd" d="M118.606 109.56L142.285 126.564C148.707 128.258 154.072 130.367 158.381 132.889C159.399 133.796 160.629 135.633 156.408 135.315C152.187 134.998 147.732 134.85 147.15 136.258C146.567 137.666 149.122 139.349 147.944 141.249C147.159 142.516 143.451 139.34 136.82 131.722L113.372 122.214L118.606 109.56ZM27.6938 110.147L43.2061 110.207C33.628 140.444 28.4572 156.488 27.6938 158.338C25.9762 162.501 29.611 168.84 31.1653 172.247C26.1028 174.463 26.6422 166.259 20.2559 169.164C14.4268 171.816 9.99262 176.621 3.25793 172.558C2.42994 172.058 1.5226 170.177 3.71485 168.707C9.17656 165.044 17.0472 158.635 18.1107 156.525C19.5609 153.648 22.7552 138.188 27.6938 110.147Z" fill="#915B3C"/>
<path fill-rule="evenodd" clip-rule="evenodd" d="M71.7766 46.4929L78.1954 45.4162C102.011 65.5354 111.793 104.187 140.985 124.662L133.959 133.179C83.3158 127.047 70.7635 79.9018 71.7766 46.4929Z" fill="#24994C"/>
<path fill-rule="evenodd" clip-rule="evenodd" d="M43.7979 125.377C69.5349 125.377 88.4665 125.377 100.593 125.377C103.188 125.377 102.699 121.712 102.324 119.863C97.994 98.5203 81.0923 75.5142 81.0923 45.1338L64.7099 42.6216C51.1597 63.9335 46.4737 90.1728 43.7979 125.377Z" fill="#DDE3E9"/>
<path fill-rule="evenodd" clip-rule="evenodd" d="M44.2514 63.5703C41.8721 62.9014 39.9879 61.3415 38.5989 58.8904C32.6111 48.3245 34.7736 42.5072 41.1726 40.5951C47.5716 38.6829 53.2782 42.6216 63.4736 42.6216C64.0281 42.6216 64.536 42.6556 64.9973 42.7236L70.1258 43.0098C84.8401 91.7776 88.8982 124.315 82.3001 140.621H37.5981C34.9496 146.661 32.4151 151.742 29.9948 155.865H17.8143C16.6679 119.618 25.4803 88.853 44.2514 63.5703Z" fill="#349DBE"/>
<path fill-rule="evenodd" clip-rule="evenodd" d="M47.3338 115.575C48.7396 127.078 51.0246 135.427 54.1888 140.621H37.5996C40.6891 133.576 43.9338 125.228 47.3338 115.575Z" fill="black" fill-opacity="0.1"/>
</svg>
