<svg width="248" height="247" viewBox="0 0 248 247" fill="none" xmlns="http://www.w3.org/2000/svg">
<rect opacity="0.5" y="39.2778" width="190.185" height="37.1124" rx="18.5562" fill="#D8F3FF"/>
<rect opacity="0.5" x="51" y="97.7795" width="139.27" height="37.1124" rx="18.5562" fill="#D8F3FF"/>
<path fill-rule="evenodd" clip-rule="evenodd" d="M189.225 37.6209C192.642 33.6826 194.955 28.856 194.568 23.4478C193.455 7.86514 171.365 11.2931 167.068 19.1579C162.771 27.0227 163.281 46.9724 168.835 48.3781C171.05 48.9386 175.768 47.5654 180.569 44.7234L177.555 65.6617H195.352L189.225 37.6209Z" fill="#B28B67"/>
<path fill-rule="evenodd" clip-rule="evenodd" d="M202.324 18.2609C202.899 17.7015 203.213 16.9031 203.484 16.145C203.766 15.3575 204.039 14.5619 204.226 13.7422C204.6 12.1045 204.604 10.221 203.414 8.94928C202.459 7.92948 201.028 7.47207 199.706 7.37266C198.826 7.30637 197.922 7.42744 197.078 7.69987C196.24 7.97012 195.519 8.50875 194.707 8.84306C194.676 7.07814 194.368 5.23141 193.456 3.72443C192.579 2.27447 191.18 1.4608 189.587 1.24554C187.951 1.02462 186.337 1.40037 184.873 2.17774C184.506 2.37243 184.143 2.57639 183.796 2.80723C183.505 3.00053 183.202 3.23333 182.861 3.31194C182.48 3.39969 182.292 3.18384 182.044 2.9112C181.754 2.59153 181.427 2.30997 181.082 2.06036C179.553 0.956879 177.547 0.503168 175.776 1.16461C174.96 1.46935 174.166 1.98689 173.612 2.70007C173.119 3.33578 172.767 4.34421 172.086 4.78712C171.797 4.97514 171.593 4.72604 171.329 4.54193C170.934 4.2653 170.557 3.96005 170.157 3.69095C169.595 3.31289 168.986 3.0301 168.335 2.88207C167.381 2.66536 166.063 2.71615 165.79 3.94295C165.688 4.40376 165.766 4.8966 165.799 5.36089C165.845 5.99842 165.892 6.63573 165.948 7.27231C165.991 7.75566 166.045 8.22248 166.138 8.69713C166.188 8.95015 166.343 9.42183 166.232 9.6752C166.094 9.9919 165.457 9.81185 165.185 9.82286C164.647 9.84467 164.107 9.93727 163.61 10.1629C163.224 10.3378 162.819 10.595 162.657 11.0287C162.557 11.2951 162.583 11.5688 162.63 11.8429C162.687 12.1718 162.622 12.3463 162.58 12.6782C161.858 12.329 159.355 11.5531 159.04 12.8241C158.935 13.2473 159.174 13.7255 159.356 14.0824C159.675 14.7084 160.094 15.2806 160.522 15.8262C161.416 16.9646 162.482 17.9464 163.629 18.7861C162.285 19.3729 161.934 21.1038 163.098 22.135C163.612 22.5903 164.303 22.6917 164.951 22.6625C165.188 22.6519 165.53 22.5623 165.717 22.6029C165.817 22.6247 165.925 22.7083 166.064 22.7177C166.979 22.7792 168.012 22.5628 168.906 22.3635C170.499 22.0083 172.008 21.267 173.24 20.138C173.556 19.8484 173.817 19.6817 174.242 19.686C174.615 19.6897 174.98 19.79 175.353 19.7993C176.338 19.824 177.226 19.351 178.141 19.0362C178.197 20.2499 178.549 21.5866 179.055 22.6785C179.467 23.5689 180.328 23.6983 181.174 23.7764C183.88 24.0264 186.595 23.7474 189.304 23.7511C186.681 24.3331 183.972 24.573 181.373 25.2579C180.198 25.5675 181.095 26.345 181.597 26.884C182.424 27.7715 183.04 28.8713 183.466 30.0298C184.749 28.3878 187.016 27.3059 189.025 27.8104C191.245 28.3676 192.807 31.315 191.388 33.4339C190.564 34.664 189.076 35.1389 187.838 35.6674C188.804 36.6535 189.038 38.1099 189.619 39.3367C189.906 39.9417 190.308 40.6257 190.949 40.8366C191.187 40.9146 191.465 40.9213 191.652 41.1112C191.884 41.3463 191.939 41.6091 192.235 41.8112C193.417 42.6178 195.262 42.5556 196.309 41.5031C197.256 40.5512 197.01 39.0448 196.219 38.0797C197.478 37.5644 199.771 36.9017 199.271 34.9757C201.999 34.7978 208.623 30.4533 204.961 27.2786C206.971 26.1635 208.817 23.4382 207.526 21.0358C206.532 19.1859 204.221 18.359 202.324 18.2609Z" fill="#191847"/>
<path fill-rule="evenodd" clip-rule="evenodd" d="M227.517 156.68H170.231L162.724 246.97H248L227.517 156.68Z" fill="#C5CFD6"/>
<path fill-rule="evenodd" clip-rule="evenodd" d="M227.517 156.68H209.898L199.353 246.97H248L227.517 156.68Z" fill="black" fill-opacity="0.1"/>
<path fill-rule="evenodd" clip-rule="evenodd" d="M104.918 141.212C98.8102 137.61 88.5627 142.238 88.5697 147.388C88.5908 162.799 102.913 235.43 103.661 240.022C104.409 244.613 112.42 245.826 112.886 240.037C113.629 230.825 115.008 198.937 113.628 184.177C113.058 178.085 112.445 172.282 111.841 167.106C119.357 180.433 130.98 199.514 146.711 224.35L155.25 220.519C148.544 198.823 143.046 183.506 138.754 174.568C131.405 159.265 124.515 146.16 121.615 141.544C117.054 134.283 109.113 136.816 104.918 141.212Z" fill="#B28B67"/>
<path fill-rule="evenodd" clip-rule="evenodd" d="M154.642 208.47L125.331 140.288C118.309 129.197 98.6219 142.545 101.017 148.978C106.453 163.583 134.101 210.865 135.721 215.216L154.642 208.47Z" fill="#1D1D2A"/>
<path fill-rule="evenodd" clip-rule="evenodd" d="M156.217 216.244C158.052 217.735 159.247 218.952 159.803 219.894C160.478 221.039 161.27 222.82 162.181 225.235C160.84 225.993 148.791 232.807 126.034 245.677C123.28 243.13 122.843 241.162 124.722 239.772C126.601 238.382 128.152 237.21 129.374 236.255L141.799 219.33C142.038 219.005 142.502 218.934 142.835 219.173C142.841 219.177 142.846 219.181 142.852 219.186L145.462 221.171C147.846 220.978 149.624 220.551 150.795 219.888C151.747 219.35 152.837 218.226 154.065 216.516L154.065 216.516C154.536 215.859 155.462 215.709 156.133 216.18C156.162 216.2 156.19 216.222 156.217 216.244Z" fill="#E4E4E4"/>
<path fill-rule="evenodd" clip-rule="evenodd" d="M114.764 236.341C115.594 238.516 116.009 240.143 116.009 241.222C116.009 242.536 115.786 244.452 115.34 246.971C113.789 246.971 99.8481 246.971 73.517 246.971C72.4301 243.442 73.0575 241.538 75.3991 241.256C77.7408 240.975 79.686 240.721 81.2348 240.494L100.674 231.985C101.048 231.821 101.486 231.986 101.653 232.353C101.656 232.36 101.659 232.366 101.661 232.372L102.911 235.349C105.079 236.342 106.84 236.838 108.196 236.838C109.297 236.838 110.817 236.402 112.758 235.528L112.758 235.528C113.502 235.193 114.382 235.514 114.724 236.245C114.738 236.277 114.752 236.309 114.764 236.341Z" fill="#E4E4E4"/>
<path fill-rule="evenodd" clip-rule="evenodd" d="M86.5164 152.627C86.5164 171.972 95.8721 217.095 95.878 221.354L116.007 221.37C113.061 181.107 112.016 160.758 112.873 160.324C114.158 159.674 165.559 165.364 180.975 165.364C203.205 165.364 212.401 151.598 213.147 126.098H169.111C160.145 127.041 113.376 136.304 96.0067 139.488C88.5707 140.851 86.5164 147.298 86.5164 152.627Z" fill="#2A2A36"/>
<path fill-rule="evenodd" clip-rule="evenodd" d="M162.253 80.7344L136.515 66.892C132.235 61.9011 128.017 58.0249 123.863 55.2636C122.594 54.7432 120.374 54.4282 122.45 58.0463C124.526 61.6643 126.544 65.5617 125.486 66.6763C124.429 67.791 121.791 66.2339 120.53 68.0859C119.689 69.3205 124.194 71.2709 134.046 73.9371L152.748 90.7518L162.253 80.7344ZM121.942 92.4135L110.636 86.3149C109.05 80.3875 107.154 77.4053 104.947 77.3682C103.253 76.5938 106.204 84.0835 102.991 83.434C99.7784 82.7845 91.9366 77.0576 90.5854 78.2204C88.5865 79.9406 90.3689 85.2228 92.469 87.8504C96.394 92.7614 99.6438 94.4409 107.676 96.6401C111.876 97.7899 116.417 100.095 121.298 103.554L121.942 92.4135Z" fill="#997659"/>
<path fill-rule="evenodd" clip-rule="evenodd" d="M174.785 77.6506C165.769 77.5571 153.748 75.6874 140.92 67.692L135.883 78.7234C144.731 87.3458 157.172 94.4302 168.05 94.1302C176.623 93.8938 181.004 83.7116 174.785 77.6506Z" fill="#24994C"/>
<path fill-rule="evenodd" clip-rule="evenodd" d="M162.647 95.3422C153.077 97.686 137.027 94.922 114.499 87.0502C108.911 98.402 106.328 106.495 106.749 111.329C126.075 121.242 142.639 125.662 156.286 125.954C155.852 133.905 156.838 141.471 160.149 148.384C166.955 162.596 206.812 149.434 220.213 152.024C228.606 125.262 212.379 114.385 212.366 97.2611C212.352 78.5081 197.017 49.6428 194.761 49.6428L174.186 49.6428C173.051 63.9647 167.337 79.7487 162.647 95.3422Z" fill="#349DBE"/>
</svg>
