<svg width="91" height="134" viewBox="0 0 91 134" fill="none" xmlns="http://www.w3.org/2000/svg">
<line x1="47" y1="-8.74228e-08" x2="47" y2="44" stroke="#D9D9D9" stroke-width="4" stroke-dasharray="8 8"/>
<rect x="0.5" y="44" width="90" height="90" rx="20" fill="#57BEEA"/>
<path d="M40 88H52C52.2652 88 52.5196 87.8946 52.7071 87.7071C52.8946 87.5196 53 87.2652 53 87V81C53 80.7348 52.8946 80.4804 52.7071 80.2929C52.5196 80.1054 52.2652 80 52 80H40C39.7348 80 39.4804 80.1054 39.2929 80.2929C39.1054 80.4804 39 80.7348 39 81V87C39 87.2652 39.1054 87.5196 39.2929 87.7071C39.4804 87.8946 39.7348 88 40 88ZM41 82H51V86H41V82ZM55 76H37C36.4696 76 35.9609 76.2107 35.5858 76.5858C35.2107 76.9609 35 77.4696 35 78V100C35 100.53 35.2107 101.039 35.5858 101.414C35.9609 101.789 36.4696 102 37 102H55C55.5304 102 56.0391 101.789 56.4142 101.414C56.7893 101.039 57 100.53 57 100V78C57 77.4696 56.7893 76.9609 56.4142 76.5858C56.0391 76.2107 55.5304 76 55 76ZM55 100H37V78H55V100ZM42.5 91.5C42.5 91.7967 42.412 92.0867 42.2472 92.3334C42.0824 92.58 41.8481 92.7723 41.574 92.8858C41.2999 92.9993 40.9983 93.0291 40.7074 92.9712C40.4164 92.9133 40.1491 92.7704 39.9393 92.5607C39.7296 92.3509 39.5867 92.0836 39.5288 91.7926C39.4709 91.5017 39.5006 91.2001 39.6142 90.926C39.7277 90.6519 39.92 90.4176 40.1666 90.2528C40.4133 90.088 40.7033 90 41 90C41.3978 90 41.7794 90.158 42.0607 90.4393C42.342 90.7206 42.5 91.1022 42.5 91.5ZM47.5 91.5C47.5 91.7967 47.412 92.0867 47.2472 92.3334C47.0824 92.58 46.8481 92.7723 46.574 92.8858C46.2999 92.9993 45.9983 93.0291 45.7074 92.9712C45.4164 92.9133 45.1491 92.7704 44.9393 92.5607C44.7296 92.3509 44.5867 92.0836 44.5288 91.7926C44.4709 91.5017 44.5006 91.2001 44.6142 90.926C44.7277 90.6519 44.92 90.4176 45.1666 90.2528C45.4133 90.088 45.7033 90 46 90C46.3978 90 46.7794 90.158 47.0607 90.4393C47.342 90.7206 47.5 91.1022 47.5 91.5ZM52.5 91.5C52.5 91.7967 52.412 92.0867 52.2472 92.3334C52.0824 92.58 51.8481 92.7723 51.574 92.8858C51.2999 92.9993 50.9983 93.0291 50.7074 92.9712C50.4164 92.9133 50.1491 92.7704 49.9393 92.5607C49.7296 92.3509 49.5867 92.0836 49.5288 91.7926C49.4709 91.5017 49.5007 91.2001 49.6142 90.926C49.7277 90.6519 49.92 90.4176 50.1666 90.2528C50.4133 90.088 50.7033 90 51 90C51.3978 90 51.7794 90.158 52.0607 90.4393C52.342 90.7206 52.5 91.1022 52.5 91.5ZM42.5 96.5C42.5 96.7967 42.412 97.0867 42.2472 97.3334C42.0824 97.58 41.8481 97.7723 41.574 97.8858C41.2999 97.9993 40.9983 98.0291 40.7074 97.9712C40.4164 97.9133 40.1491 97.7704 39.9393 97.5607C39.7296 97.3509 39.5867 97.0836 39.5288 96.7926C39.4709 96.5017 39.5006 96.2001 39.6142 95.926C39.7277 95.6519 39.92 95.4176 40.1666 95.2528C40.4133 95.088 40.7033 95 41 95C41.3978 95 41.7794 95.158 42.0607 95.4393C42.342 95.7206 42.5 96.1022 42.5 96.5ZM47.5 96.5C47.5 96.7967 47.412 97.0867 47.2472 97.3334C47.0824 97.58 46.8481 97.7723 46.574 97.8858C46.2999 97.9993 45.9983 98.0291 45.7074 97.9712C45.4164 97.9133 45.1491 97.7704 44.9393 97.5607C44.7296 97.3509 44.5867 97.0836 44.5288 96.7926C44.4709 96.5017 44.5006 96.2001 44.6142 95.926C44.7277 95.6519 44.92 95.4176 45.1666 95.2528C45.4133 95.088 45.7033 95 46 95C46.3978 95 46.7794 95.158 47.0607 95.4393C47.342 95.7206 47.5 96.1022 47.5 96.5ZM52.5 96.5C52.5 96.7967 52.412 97.0867 52.2472 97.3334C52.0824 97.58 51.8481 97.7723 51.574 97.8858C51.2999 97.9993 50.9983 98.0291 50.7074 97.9712C50.4164 97.9133 50.1491 97.7704 49.9393 97.5607C49.7296 97.3509 49.5867 97.0836 49.5288 96.7926C49.4709 96.5017 49.5007 96.2001 49.6142 95.926C49.7277 95.6519 49.92 95.4176 50.1666 95.2528C50.4133 95.088 50.7033 95 51 95C51.3978 95 51.7794 95.158 52.0607 95.4393C52.342 95.7206 52.5 96.1022 52.5 96.5Z" fill="#FCFCFC"/>
</svg>
