<svg width="90" height="90" viewBox="0 0 90 90" fill="none" xmlns="http://www.w3.org/2000/svg">
<rect width="90" height="90" rx="20" fill="#57BEEA"/>
<path d="M39 44H51C51.2652 44 51.5196 43.8946 51.7071 43.7071C51.8946 43.5196 52 43.2652 52 43V37C52 36.7348 51.8946 36.4804 51.7071 36.2929C51.5196 36.1054 51.2652 36 51 36H39C38.7348 36 38.4804 36.1054 38.2929 36.2929C38.1054 36.4804 38 36.7348 38 37V43C38 43.2652 38.1054 43.5196 38.2929 43.7071C38.4804 43.8946 38.7348 44 39 44ZM40 38H50V42H40V38ZM54 32H36C35.4696 32 34.9609 32.2107 34.5858 32.5858C34.2107 32.9609 34 33.4696 34 34V56C34 56.5304 34.2107 57.0391 34.5858 57.4142C34.9609 57.7893 35.4696 58 36 58H54C54.5304 58 55.0391 57.7893 55.4142 57.4142C55.7893 57.0391 56 56.5304 56 56V34C56 33.4696 55.7893 32.9609 55.4142 32.5858C55.0391 32.2107 54.5304 32 54 32ZM54 56H36V34H54V56ZM41.5 47.5C41.5 47.7967 41.412 48.0867 41.2472 48.3334C41.0824 48.58 40.8481 48.7723 40.574 48.8858C40.2999 48.9993 39.9983 49.0291 39.7074 48.9712C39.4164 48.9133 39.1491 48.7704 38.9393 48.5607C38.7296 48.3509 38.5867 48.0836 38.5288 47.7926C38.4709 47.5017 38.5006 47.2001 38.6142 46.926C38.7277 46.6519 38.92 46.4176 39.1666 46.2528C39.4133 46.088 39.7033 46 40 46C40.3978 46 40.7794 46.158 41.0607 46.4393C41.342 46.7206 41.5 47.1022 41.5 47.5ZM46.5 47.5C46.5 47.7967 46.412 48.0867 46.2472 48.3334C46.0824 48.58 45.8481 48.7723 45.574 48.8858C45.2999 48.9993 44.9983 49.0291 44.7074 48.9712C44.4164 48.9133 44.1491 48.7704 43.9393 48.5607C43.7296 48.3509 43.5867 48.0836 43.5288 47.7926C43.4709 47.5017 43.5006 47.2001 43.6142 46.926C43.7277 46.6519 43.92 46.4176 44.1666 46.2528C44.4133 46.088 44.7033 46 45 46C45.3978 46 45.7794 46.158 46.0607 46.4393C46.342 46.7206 46.5 47.1022 46.5 47.5ZM51.5 47.5C51.5 47.7967 51.412 48.0867 51.2472 48.3334C51.0824 48.58 50.8481 48.7723 50.574 48.8858C50.2999 48.9993 49.9983 49.0291 49.7074 48.9712C49.4164 48.9133 49.1491 48.7704 48.9393 48.5607C48.7296 48.3509 48.5867 48.0836 48.5288 47.7926C48.4709 47.5017 48.5007 47.2001 48.6142 46.926C48.7277 46.6519 48.92 46.4176 49.1666 46.2528C49.4133 46.088 49.7033 46 50 46C50.3978 46 50.7794 46.158 51.0607 46.4393C51.342 46.7206 51.5 47.1022 51.5 47.5ZM41.5 52.5C41.5 52.7967 41.412 53.0867 41.2472 53.3334C41.0824 53.58 40.8481 53.7723 40.574 53.8858C40.2999 53.9993 39.9983 54.0291 39.7074 53.9712C39.4164 53.9133 39.1491 53.7704 38.9393 53.5607C38.7296 53.3509 38.5867 53.0836 38.5288 52.7926C38.4709 52.5017 38.5006 52.2001 38.6142 51.926C38.7277 51.6519 38.92 51.4176 39.1666 51.2528C39.4133 51.088 39.7033 51 40 51C40.3978 51 40.7794 51.158 41.0607 51.4393C41.342 51.7206 41.5 52.1022 41.5 52.5ZM46.5 52.5C46.5 52.7967 46.412 53.0867 46.2472 53.3334C46.0824 53.58 45.8481 53.7723 45.574 53.8858C45.2999 53.9993 44.9983 54.0291 44.7074 53.9712C44.4164 53.9133 44.1491 53.7704 43.9393 53.5607C43.7296 53.3509 43.5867 53.0836 43.5288 52.7926C43.4709 52.5017 43.5006 52.2001 43.6142 51.926C43.7277 51.6519 43.92 51.4176 44.1666 51.2528C44.4133 51.088 44.7033 51 45 51C45.3978 51 45.7794 51.158 46.0607 51.4393C46.342 51.7206 46.5 52.1022 46.5 52.5ZM51.5 52.5C51.5 52.7967 51.412 53.0867 51.2472 53.3334C51.0824 53.58 50.8481 53.7723 50.574 53.8858C50.2999 53.9993 49.9983 54.0291 49.7074 53.9712C49.4164 53.9133 49.1491 53.7704 48.9393 53.5607C48.7296 53.3509 48.5867 53.0836 48.5288 52.7926C48.4709 52.5017 48.5007 52.2001 48.6142 51.926C48.7277 51.6519 48.92 51.4176 49.1666 51.2528C49.4133 51.088 49.7033 51 50 51C50.3978 51 50.7794 51.158 51.0607 51.4393C51.342 51.7206 51.5 52.1022 51.5 52.5Z" fill="#FCFCFC"/>
</svg>
