<svg width="26" height="18" viewBox="0 0 26 18" fill="none" xmlns="http://www.w3.org/2000/svg">
<g clip-path="url(#clip0_438_1284)">
<path d="M0 2C0 0.89543 0.895431 0 2 0H24C25.1046 0 26 0.895431 26 2V16C26 17.1046 25.1046 18 24 18H2C0.89543 18 0 17.1046 0 16V2Z" fill="#F93939"/>
<path d="M23.5238 0H2.47619C1.10863 0 0 1.07452 0 2.4V15.6C0 16.9255 1.10863 18 2.47619 18H23.5238C24.8914 18 26 16.9255 26 15.6V2.4C26 1.07452 24.8914 0 23.5238 0Z" fill="#F93939"/>
<path fill-rule="evenodd" clip-rule="evenodd" d="M0 4.79999H26V13.2H0V4.79999Z" fill="#FFDA2C"/>
</g>
<defs>
<clipPath id="clip0_438_1284">
<path d="M0 2C0 0.89543 0.895431 0 2 0H24C25.1046 0 26 0.895431 26 2V16C26 17.1046 25.1046 18 24 18H2C0.89543 18 0 17.1046 0 16V2Z" fill="white"/>
</clipPath>
</defs>
</svg>
