<svg width="139" height="139" viewBox="0 0 139 139" fill="none" xmlns="http://www.w3.org/2000/svg">
<g filter="url(#filter0_d_406_9019)">
<circle cx="66" cy="66" r="47" fill="white"/>
</g>
<g clip-path="url(#clip0_406_9019)">
<path d="M46 54C46 52.8954 46.8954 52 48 52H84C85.1046 52 86 52.8954 86 54V78C86 79.1046 85.1046 80 84 80H48C46.8954 80 46 79.1046 46 78V54Z" fill="#F93939"/>
<path d="M82.1905 52H49.8095C47.7056 52 46 53.6715 46 55.7333V76.2667C46 78.3285 47.7056 80 49.8095 80H82.1905C84.2944 80 86 78.3285 86 76.2667V55.7333C86 53.6715 84.2944 52 82.1905 52Z" fill="#F93939"/>
<path fill-rule="evenodd" clip-rule="evenodd" d="M46 59.4666H86V72.5332H46V59.4666Z" fill="#FFDA2C"/>
</g>
<defs>
<filter id="filter0_d_406_9019" x="0.736371" y="0.736371" width="138" height="138" filterUnits="userSpaceOnUse" color-interpolation-filters="sRGB">
<feFlood flood-opacity="0" result="BackgroundImageFix"/>
<feColorMatrix in="SourceAlpha" type="matrix" values="0 0 0 0 0 0 0 0 0 0 0 0 0 0 0 0 0 0 127 0" result="hardAlpha"/>
<feOffset dx="3.73637" dy="3.73637"/>
<feGaussianBlur stdDeviation="11"/>
<feColorMatrix type="matrix" values="0 0 0 0 0.341176 0 0 0 0 0.745098 0 0 0 0 0.917647 0 0 0 0.12 0"/>
<feBlend mode="normal" in2="BackgroundImageFix" result="effect1_dropShadow_406_9019"/>
<feBlend mode="normal" in="SourceGraphic" in2="effect1_dropShadow_406_9019" result="shape"/>
</filter>
<clipPath id="clip0_406_9019">
<path d="M46 54C46 52.8954 46.8954 52 48 52H84C85.1046 52 86 52.8954 86 54V78C86 79.1046 85.1046 80 84 80H48C46.8954 80 46 79.1046 46 78V54Z" fill="white"/>
</clipPath>
</defs>
</svg>
