<svg width="148" height="56" viewBox="0 0 148 56" fill="none" xmlns="http://www.w3.org/2000/svg">
<path d="M128 0H20C8.9543 0 0 8.9543 0 20V36C0 47.0457 8.9543 56 20 56H128C139.046 56 148 47.0457 148 36V20C148 8.9543 139.046 0 128 0Z" fill="white"/>
<mask id="mask0_642_4315" style="mask-type:luminance" maskUnits="userSpaceOnUse" x="15" y="19" width="26" height="18">
<path d="M15 21C15 19.8954 15.8954 19 17 19H39C40.105 19 41 19.8954 41 21V35C41 36.105 40.105 37 39 37H17C15.8954 37 15 36.105 15 35V21Z" fill="white"/>
</mask>
<g mask="url(#mask0_642_4315)">
<path d="M15 21C15 19.8954 15.8954 19 17 19H39C40.105 19 41 19.8954 41 21V35C41 36.105 40.105 37 39 37H17C15.8954 37 15 36.105 15 35V21Z" fill="#F93939"/>
<path d="M38.524 19H17.4762C16.1086 19 15 20.075 15 21.4V34.6C15 35.925 16.1086 37 17.4762 37H38.524C39.891 37 41 35.925 41 34.6V21.4C41 20.075 39.891 19 38.524 19Z" fill="#F93939"/>
<path fill-rule="evenodd" clip-rule="evenodd" d="M15 23.8H41V32.2H15V23.8Z" fill="#FFDA2C"/>
</g>
<path d="M61.07 24.602C61.008 23.971 60.74 23.482 60.266 23.133C59.792 22.784 59.148 22.609 58.336 22.609C57.784 22.609 57.318 22.687 56.938 22.844C56.557 22.995 56.266 23.206 56.063 23.477C55.865 23.747 55.766 24.055 55.766 24.398C55.755 24.685 55.815 24.935 55.945 25.148C56.081 25.362 56.266 25.547 56.5 25.703C56.734 25.854 57.005 25.987 57.312 26.102C57.62 26.211 57.948 26.305 58.297 26.383L59.734 26.727C60.432 26.883 61.073 27.091 61.656 27.352C62.24 27.612 62.745 27.932 63.172 28.312C63.599 28.693 63.93 29.141 64.164 29.656C64.404 30.172 64.526 30.763 64.531 31.43C64.526 32.409 64.276 33.258 63.781 33.977C63.292 34.69 62.583 35.245 61.656 35.641C60.734 36.031 59.622 36.227 58.32 36.227C57.029 36.227 55.904 36.029 54.945 35.633C53.992 35.237 53.247 34.651 52.711 33.875C52.18 33.094 51.901 32.128 51.875 30.977H55.148C55.185 31.513 55.339 31.961 55.609 32.32C55.885 32.674 56.253 32.943 56.711 33.125C57.174 33.302 57.698 33.391 58.281 33.391C58.854 33.391 59.352 33.307 59.773 33.141C60.201 32.974 60.531 32.742 60.766 32.445C61 32.148 61.117 31.807 61.117 31.422C61.117 31.062 61.01 30.76 60.797 30.516C60.589 30.271 60.281 30.062 59.875 29.891C59.474 29.719 58.982 29.562 58.398 29.422L56.656 28.984C55.307 28.656 54.242 28.143 53.461 27.445C52.68 26.747 52.292 25.807 52.297 24.625C52.292 23.656 52.549 22.81 53.07 22.086C53.596 21.362 54.318 20.797 55.234 20.391C56.151 19.9844 57.193 19.7812 58.359 19.7812C59.547 19.7812 60.583 19.9844 61.469 20.391C62.359 20.797 63.052 21.362 63.547 22.086C64.042 22.81 64.297 23.648 64.312 24.602H61.07ZM65.864 40.5V24H69.145V26.016H69.294C69.44 25.693 69.651 25.365 69.927 25.031C70.208 24.693 70.572 24.411 71.02 24.188C71.474 23.958 72.036 23.844 72.708 23.844C73.583 23.844 74.39 24.073 75.13 24.531C75.869 24.984 76.46 25.669 76.903 26.586C77.346 27.497 77.567 28.641 77.567 30.016C77.567 31.354 77.351 32.484 76.919 33.406C76.492 34.323 75.908 35.018 75.169 35.492C74.434 35.961 73.612 36.195 72.7 36.195C72.054 36.195 71.505 36.089 71.052 35.875C70.604 35.661 70.237 35.393 69.95 35.07C69.664 34.742 69.445 34.411 69.294 34.078H69.192V40.5H65.864ZM69.122 30C69.122 30.714 69.221 31.336 69.419 31.867C69.617 32.398 69.903 32.812 70.278 33.109C70.653 33.401 71.109 33.547 71.645 33.547C72.187 33.547 72.645 33.398 73.02 33.102C73.395 32.799 73.679 32.383 73.872 31.852C74.07 31.315 74.169 30.698 74.169 30C74.169 29.307 74.072 28.698 73.88 28.172C73.687 27.646 73.403 27.234 73.028 26.937C72.653 26.641 72.192 26.492 71.645 26.492C71.104 26.492 70.645 26.635 70.27 26.922C69.901 27.208 69.617 27.615 69.419 28.141C69.221 28.667 69.122 29.286 69.122 30ZM82.328 36.227C81.562 36.227 80.88 36.094 80.281 35.828C79.682 35.557 79.208 35.159 78.859 34.633C78.515 34.102 78.344 33.44 78.344 32.648C78.344 31.982 78.466 31.422 78.711 30.969C78.955 30.516 79.289 30.151 79.711 29.875C80.133 29.599 80.612 29.391 81.148 29.25C81.69 29.109 82.258 29.01 82.851 28.953C83.549 28.88 84.112 28.812 84.539 28.75C84.966 28.682 85.276 28.583 85.469 28.453C85.661 28.323 85.758 28.13 85.758 27.875V27.828C85.758 27.333 85.601 26.951 85.289 26.68C84.982 26.409 84.544 26.273 83.976 26.273C83.377 26.273 82.901 26.406 82.547 26.672C82.192 26.932 81.958 27.26 81.844 27.656L78.765 27.406C78.922 26.677 79.229 26.047 79.687 25.516C80.146 24.979 80.737 24.568 81.461 24.281C82.19 23.99 83.034 23.844 83.992 23.844C84.659 23.844 85.297 23.922 85.906 24.078C86.521 24.234 87.065 24.477 87.539 24.805C88.018 25.133 88.396 25.555 88.672 26.07C88.948 26.581 89.086 27.193 89.086 27.906V36H85.929V34.336H85.836C85.643 34.711 85.385 35.042 85.062 35.328C84.739 35.609 84.351 35.831 83.898 35.992C83.445 36.148 82.922 36.227 82.328 36.227ZM83.281 33.93C83.771 33.93 84.203 33.833 84.578 33.641C84.953 33.443 85.247 33.177 85.461 32.844C85.674 32.51 85.781 32.133 85.781 31.711V30.438C85.677 30.505 85.534 30.568 85.351 30.625C85.174 30.677 84.974 30.727 84.75 30.773C84.526 30.815 84.302 30.854 84.078 30.891C83.854 30.922 83.651 30.951 83.469 30.977C83.078 31.034 82.737 31.125 82.445 31.25C82.153 31.375 81.927 31.544 81.765 31.758C81.604 31.966 81.523 32.227 81.523 32.539C81.523 32.992 81.687 33.339 82.015 33.578C82.349 33.812 82.771 33.93 83.281 33.93ZM94.116 29.063V36H90.788V24H93.96V26.117H94.1C94.366 25.419 94.811 24.867 95.436 24.461C96.061 24.049 96.819 23.844 97.71 23.844C98.543 23.844 99.27 24.026 99.889 24.391C100.509 24.755 100.991 25.276 101.335 25.953C101.678 26.625 101.85 27.427 101.85 28.359V36H98.522V28.953C98.527 28.219 98.34 27.646 97.96 27.234C97.579 26.818 97.056 26.609 96.389 26.609C95.941 26.609 95.546 26.706 95.202 26.898C94.863 27.091 94.598 27.372 94.405 27.742C94.217 28.107 94.121 28.547 94.116 29.063ZM103.593 36V24H106.921V36H103.593ZM105.265 22.453C104.77 22.453 104.346 22.289 103.992 21.961C103.643 21.628 103.468 21.229 103.468 20.766C103.468 20.307 103.643 19.9141 103.992 19.5859C104.346 19.2526 104.77 19.0859 105.265 19.0859C105.76 19.0859 106.182 19.2526 106.531 19.5859C106.885 19.9141 107.062 20.307 107.062 20.766C107.062 21.229 106.885 21.628 106.531 21.961C106.182 22.289 105.76 22.453 105.265 22.453ZM118.692 27.422L115.645 27.609C115.593 27.349 115.481 27.115 115.309 26.906C115.137 26.693 114.911 26.523 114.629 26.398C114.353 26.268 114.023 26.203 113.637 26.203C113.121 26.203 112.687 26.312 112.332 26.531C111.978 26.745 111.801 27.031 111.801 27.391C111.801 27.677 111.916 27.919 112.145 28.117C112.374 28.315 112.767 28.474 113.325 28.594L115.496 29.031C116.663 29.271 117.533 29.656 118.106 30.187C118.679 30.719 118.965 31.417 118.965 32.281C118.965 33.068 118.733 33.758 118.27 34.352C117.812 34.945 117.181 35.409 116.379 35.742C115.582 36.07 114.663 36.234 113.621 36.234C112.033 36.234 110.767 35.904 109.825 35.242C108.887 34.576 108.338 33.669 108.176 32.523L111.45 32.352C111.549 32.836 111.788 33.206 112.168 33.461C112.549 33.711 113.036 33.836 113.629 33.836C114.213 33.836 114.681 33.724 115.036 33.5C115.395 33.271 115.577 32.977 115.582 32.617C115.577 32.315 115.45 32.068 115.2 31.875C114.95 31.677 114.564 31.526 114.043 31.422L111.965 31.008C110.793 30.773 109.921 30.367 109.348 29.789C108.78 29.211 108.496 28.474 108.496 27.578C108.496 26.807 108.705 26.143 109.121 25.586C109.543 25.029 110.135 24.599 110.895 24.297C111.661 23.995 112.556 23.844 113.582 23.844C115.098 23.844 116.291 24.164 117.161 24.805C118.036 25.445 118.546 26.318 118.692 27.422ZM123.509 29.063V36H120.181V20H123.415V26.117H123.556C123.827 25.409 124.264 24.854 124.868 24.453C125.473 24.047 126.23 23.844 127.142 23.844C127.975 23.844 128.702 24.026 129.322 24.391C129.947 24.75 130.431 25.268 130.775 25.945C131.124 26.617 131.296 27.422 131.29 28.359V36H127.962V28.953C127.967 28.214 127.78 27.638 127.4 27.227C127.025 26.815 126.499 26.609 125.822 26.609C125.368 26.609 124.967 26.706 124.618 26.898C124.275 27.091 124.004 27.372 123.806 27.742C123.613 28.107 123.514 28.547 123.509 29.063Z" fill="#0A071B"/>
</svg>
