<svg width="68" height="68" viewBox="0 0 68 68" fill="none" xmlns="http://www.w3.org/2000/svg">
<circle cx="34" cy="34" r="34" fill="#57BEEA" fill-opacity="0.1"/>
<path d="M8 34C8 19.6406 19.6406 8 34 8C48.3594 8 60 19.6406 60 34C60 48.3594 48.3594 60 34 60C19.6406 60 8 48.3594 8 34Z" fill="white"/>
<path d="M37.3333 34.1969L38.9021 37.3333H35.7646L36.4271 36.0104L37.3333 34.1969ZM44 25.6667V42.3333C44 42.7754 43.8244 43.1993 43.5118 43.5118C43.1993 43.8244 42.7754 44 42.3333 44H25.6667C25.2246 44 24.8007 43.8244 24.4882 43.5118C24.1756 43.1993 24 42.7754 24 42.3333V25.6667C24 25.2246 24.1756 24.8007 24.4882 24.4882C24.8007 24.1756 25.2246 24 25.6667 24H42.3333C42.7754 24 43.1993 24.1756 43.5118 24.4882C43.8244 24.8007 44 25.2246 44 25.6667ZM42.2458 40.2937L38.0792 31.9604C38.0101 31.8217 37.9036 31.7051 37.7719 31.6235C37.6401 31.542 37.4883 31.4988 37.3333 31.4988C37.1784 31.4988 37.0265 31.542 36.8948 31.6235C36.763 31.7051 36.6566 31.8217 36.5875 31.9604L35.2146 34.7083C34.3314 34.5354 33.4939 34.1806 32.7552 33.6667C33.9066 32.3631 34.619 30.7306 34.7917 29H36.5C36.721 29 36.933 28.9122 37.0893 28.7559C37.2455 28.5996 37.3333 28.3877 37.3333 28.1667C37.3333 27.9457 37.2455 27.7337 37.0893 27.5774C36.933 27.4211 36.721 27.3333 36.5 27.3333H32.3333V26.5C32.3333 26.279 32.2455 26.067 32.0893 25.9107C31.933 25.7545 31.721 25.6667 31.5 25.6667C31.279 25.6667 31.067 25.7545 30.9107 25.9107C30.7545 26.067 30.6667 26.279 30.6667 26.5V27.3333H26.5C26.279 27.3333 26.067 27.4211 25.9107 27.5774C25.7545 27.7337 25.6667 27.9457 25.6667 28.1667C25.6667 28.3877 25.7545 28.5996 25.9107 28.7559C26.067 28.9122 26.279 29 26.5 29H33.1125C32.9472 30.3149 32.3921 31.5502 31.5187 32.5469C31.1488 32.1149 30.8338 31.6387 30.5812 31.1292C30.4789 30.9383 30.3063 30.7948 30.0999 30.729C29.8936 30.6633 29.6698 30.6804 29.4758 30.7768C29.2819 30.8732 29.1332 31.0414 29.0611 31.2456C28.989 31.4498 28.9992 31.674 29.0896 31.8708C29.4085 32.514 29.8075 33.1142 30.2771 33.6573C29.1672 34.4247 27.8494 34.835 26.5 34.8333C26.279 34.8333 26.067 34.9211 25.9107 35.0774C25.7545 35.2337 25.6667 35.4457 25.6667 35.6667C25.6667 35.8877 25.7545 36.0996 25.9107 36.2559C26.067 36.4122 26.279 36.5 26.5 36.5C28.3091 36.5019 30.0691 35.9118 31.5115 34.8198C32.3842 35.4869 33.3826 35.9708 34.4469 36.2427L32.4208 40.2937C32.3219 40.4916 32.3057 40.7206 32.3756 40.9304C32.4455 41.1402 32.5959 41.3136 32.7937 41.4125C32.9916 41.5114 33.2206 41.5277 33.4304 41.4577C33.6402 41.3878 33.8136 41.2374 33.9125 41.0396L34.9312 39H39.7354L40.7542 41.0396C40.8031 41.1375 40.8709 41.2249 40.9536 41.2966C41.0364 41.3684 41.1324 41.4231 41.2363 41.4577C41.3402 41.4924 41.4499 41.5062 41.5591 41.4984C41.6683 41.4907 41.775 41.4615 41.8729 41.4125C41.9709 41.3635 42.0582 41.2957 42.1299 41.213C42.2017 41.1303 42.2564 41.0342 42.2911 40.9304C42.3257 40.8265 42.3395 40.7168 42.3318 40.6076C42.324 40.4983 42.2948 40.3917 42.2458 40.2937Z" fill="#012F5B"/>
</svg>
