<svg width="68" height="68" viewBox="0 0 68 68" fill="none" xmlns="http://www.w3.org/2000/svg">
<circle cx="34" cy="34" r="34" fill="#57BEEA" fill-opacity="0.1"/>
<path d="M8 34C8 19.6406 19.6406 8 34 8C48.3594 8 60 19.6406 60 34C60 48.3594 48.3594 60 34 60C19.6406 60 8 48.3594 8 34Z" fill="white"/>
<path d="M40.5455 24H27.4545C27.0688 24 26.6988 24.1621 26.426 24.4506C26.1532 24.7391 26 25.1304 26 25.5385V42.4615C26 42.8696 26.1532 43.2609 26.426 43.5494C26.6988 43.8379 27.0688 44 27.4545 44H40.5455C40.9312 44 41.3012 43.8379 41.574 43.5494C41.8468 43.2609 42 42.8696 42 42.4615V25.5385C42 25.1304 41.8468 24.7391 41.574 24.4506C41.3012 24.1621 40.9312 24 40.5455 24ZM31.0909 26.3077H36.9091C37.102 26.3077 37.287 26.3887 37.4234 26.533C37.5597 26.6773 37.6364 26.8729 37.6364 27.0769C37.6364 27.2809 37.5597 27.4766 37.4234 27.6209C37.287 27.7651 37.102 27.8462 36.9091 27.8462H31.0909C30.898 27.8462 30.713 27.7651 30.5766 27.6209C30.4403 27.4766 30.3636 27.2809 30.3636 27.0769C30.3636 26.8729 30.4403 26.6773 30.5766 26.533C30.713 26.3887 30.898 26.3077 31.0909 26.3077ZM38.8009 40.7692C38.7245 40.83 38.6375 40.8742 38.5449 40.8994C38.4522 40.9245 38.3559 40.9301 38.2612 40.9158C38.1665 40.9015 38.0755 40.8676 37.9932 40.8161C37.911 40.7645 37.8391 40.6963 37.7818 40.6154C37.3415 39.9944 36.7705 39.4904 36.1141 39.1432C35.4577 38.7961 34.7339 38.6154 34 38.6154C33.2661 38.6154 32.5423 38.7961 31.8859 39.1432C31.2295 39.4904 30.6585 39.9944 30.2182 40.6154C30.1609 40.6962 30.0891 40.7643 30.0069 40.8158C29.9247 40.8672 29.8338 40.9011 29.7392 40.9153C29.6447 40.9296 29.5484 40.9241 29.4559 40.899C29.3633 40.8739 29.2764 40.8298 29.2 40.7692C29.1236 40.7086 29.0592 40.6327 29.0106 40.5458C28.9619 40.4588 28.9299 40.3626 28.9164 40.2626C28.9029 40.1626 28.9081 40.0608 28.9318 39.9629C28.9555 39.8651 28.9972 39.7731 29.0545 39.6923C29.6985 38.7791 30.5573 38.0601 31.5455 37.6067C31.0039 37.0838 30.6245 36.3999 30.457 35.6448C30.2895 34.8897 30.3418 34.0987 30.607 33.3756C30.8721 32.6525 31.3378 32.0311 31.9428 31.5929C32.5478 31.1547 33.264 30.9202 33.9973 30.9202C34.7306 30.9202 35.4467 31.1547 36.0518 31.5929C36.6568 32.0311 37.1224 32.6525 37.3876 33.3756C37.6527 34.0987 37.705 34.8897 37.5375 35.6448C37.37 36.3999 36.9906 37.0838 36.4491 37.6067C37.4392 38.0592 38.3 38.7783 38.9455 39.6923C39.0613 39.8554 39.1111 40.0605 39.084 40.2624C39.0569 40.4644 38.9551 40.6467 38.8009 40.7692ZM36.1818 34.7692C36.1818 35.2256 36.0539 35.6718 35.8141 36.0513C35.5744 36.4308 35.2336 36.7266 34.8349 36.9013C34.4363 37.0759 33.9976 37.1216 33.5743 37.0326C33.1511 36.9435 32.7624 36.7238 32.4572 36.401C32.1521 36.0783 31.9443 35.6671 31.8601 35.2194C31.7759 34.7718 31.8191 34.3078 31.9843 33.8861C32.1494 33.4644 32.429 33.104 32.7878 32.8505C33.1466 32.5969 33.5685 32.4615 34 32.4615C34.5787 32.4615 35.1336 32.7047 35.5428 33.1374C35.9519 33.5702 36.1818 34.1572 36.1818 34.7692Z" fill="#012F5B"/>
</svg>
