<svg width="90" height="90" viewBox="0 0 90 90" fill="none" xmlns="http://www.w3.org/2000/svg">
<rect width="90" height="90" rx="20" fill="#57BEEA"/>
<path d="M59.8937 55.5525L52.8937 41.5525C52.8107 41.3864 52.683 41.2468 52.5251 41.1491C52.3671 41.0515 52.1851 40.9998 51.9994 40.9998C51.8137 40.9998 51.6317 41.0515 51.4737 41.1491C51.3157 41.2468 51.1881 41.3864 51.105 41.5525L48.3913 46.9813C46.2641 46.8616 44.2175 46.1269 42.5 44.8663C44.5151 42.7143 45.7361 39.9395 45.9613 37H49C49.2652 37 49.5196 36.8946 49.7071 36.7071C49.8946 36.5196 50 36.2652 50 36C50 35.7348 49.8946 35.4804 49.7071 35.2929C49.5196 35.1054 49.2652 35 49 35H42V33C42 32.7348 41.8946 32.4804 41.7071 32.2929C41.5196 32.1054 41.2652 32 41 32C40.7348 32 40.4804 32.1054 40.2929 32.2929C40.1054 32.4804 40 32.7348 40 33V35H33C32.7348 35 32.4804 35.1054 32.2929 35.2929C32.1054 35.4804 32 35.7348 32 36C32 36.2652 32.1054 36.5196 32.2929 36.7071C32.4804 36.8946 32.7348 37 33 37H43.9537C43.731 39.4508 42.6907 41.7556 41 43.5437C39.9464 42.4321 39.1374 41.1121 38.625 39.6687C38.5829 39.5428 38.5161 39.4265 38.4285 39.3267C38.341 39.2269 38.2344 39.1455 38.1151 39.0873C37.9957 39.029 37.866 38.9952 37.7334 38.9877C37.6008 38.9801 37.468 38.9991 37.3429 39.0434C37.2177 39.0877 37.1026 39.1565 37.0043 39.2458C36.906 39.3351 36.8265 39.4431 36.7704 39.5634C36.7142 39.6838 36.6827 39.8141 36.6774 39.9468C36.6722 40.0795 36.6935 40.2119 36.74 40.3363C37.3366 42.0236 38.2763 43.569 39.5 44.875C37.616 46.2595 35.338 47.0042 33 47C32.7348 47 32.4804 47.1054 32.2929 47.2929C32.1054 47.4804 32 47.7348 32 48C32 48.2652 32.1054 48.5196 32.2929 48.7071C32.4804 48.8946 32.7348 49 33 49C35.9007 49.0032 38.7183 48.0312 41 46.24C42.862 47.6948 45.0847 48.6156 47.43 48.9037L44.105 55.5525C44.0462 55.67 44.0112 55.7978 44.0018 55.9288C43.9925 56.0598 44.009 56.1914 44.0505 56.316C44.1343 56.5676 44.3147 56.7757 44.5519 56.8944C44.7891 57.0131 45.0637 57.0327 45.3154 56.9488C45.567 56.865 45.7751 56.6847 45.8937 56.4475L47.6175 53H56.3813L58.105 56.4475C58.1881 56.6136 58.3159 56.7533 58.474 56.8509C58.6321 56.9485 58.8142 57.0001 59 57C59.1704 56.9999 59.338 56.9563 59.4869 56.8732C59.6357 56.7901 59.7608 56.6704 59.8503 56.5254C59.9399 56.3803 59.9909 56.2148 59.9985 56.0446C60.0061 55.8743 59.97 55.7049 59.8937 55.5525ZM48.6175 51L52 44.2362L55.3813 51H48.6175Z" fill="#FCFCFC" fill-opacity="0.988235"/>
</svg>
