<svg width="91" height="134" viewBox="0 0 91 134" fill="none" xmlns="http://www.w3.org/2000/svg">
<line x1="47" y1="-8.74228e-08" x2="47" y2="44" stroke="#D9D9D9" stroke-width="4" stroke-dasharray="8 8"/>
<rect x="0.5" y="44" width="90" height="90" rx="20" fill="#57BEEA"/>
<path d="M60.8937 99.5525L53.8937 85.5525C53.8107 85.3864 53.683 85.2468 53.5251 85.1491C53.3671 85.0515 53.1851 84.9998 52.9994 84.9998C52.8137 84.9998 52.6317 85.0515 52.4737 85.1491C52.3157 85.2468 52.1881 85.3864 52.105 85.5525L49.3913 90.9813C47.2641 90.8616 45.2175 90.1269 43.5 88.8663C45.5151 86.7143 46.7361 83.9395 46.9613 81H50C50.2652 81 50.5196 80.8946 50.7071 80.7071C50.8946 80.5196 51 80.2652 51 80C51 79.7348 50.8946 79.4804 50.7071 79.2929C50.5196 79.1054 50.2652 79 50 79H43V77C43 76.7348 42.8946 76.4804 42.7071 76.2929C42.5196 76.1054 42.2652 76 42 76C41.7348 76 41.4804 76.1054 41.2929 76.2929C41.1054 76.4804 41 76.7348 41 77V79H34C33.7348 79 33.4804 79.1054 33.2929 79.2929C33.1054 79.4804 33 79.7348 33 80C33 80.2652 33.1054 80.5196 33.2929 80.7071C33.4804 80.8946 33.7348 81 34 81H44.9537C44.731 83.4508 43.6907 85.7556 42 87.5437C40.9464 86.4321 40.1374 85.1121 39.625 83.6687C39.5829 83.5428 39.5161 83.4265 39.4285 83.3267C39.341 83.2269 39.2344 83.1455 39.1151 83.0873C38.9957 83.029 38.866 82.9952 38.7334 82.9877C38.6008 82.9801 38.468 82.9991 38.3429 83.0434C38.2177 83.0877 38.1026 83.1565 38.0043 83.2458C37.906 83.3351 37.8265 83.4431 37.7704 83.5634C37.7142 83.6838 37.6827 83.8141 37.6774 83.9468C37.6722 84.0795 37.6935 84.2119 37.74 84.3363C38.3366 86.0236 39.2763 87.569 40.5 88.875C38.616 90.2595 36.338 91.0042 34 91C33.7348 91 33.4804 91.1054 33.2929 91.2929C33.1054 91.4804 33 91.7348 33 92C33 92.2652 33.1054 92.5196 33.2929 92.7071C33.4804 92.8946 33.7348 93 34 93C36.9007 93.0032 39.7183 92.0312 42 90.24C43.862 91.6948 46.0847 92.6156 48.43 92.9037L45.105 99.5525C45.0462 99.67 45.0112 99.7978 45.0018 99.9288C44.9925 100.06 45.009 100.191 45.0505 100.316C45.1343 100.568 45.3147 100.776 45.5519 100.894C45.7891 101.013 46.0637 101.033 46.3154 100.949C46.567 100.865 46.7751 100.685 46.8937 100.448L48.6175 97H57.3813L59.105 100.448C59.1881 100.614 59.3159 100.753 59.474 100.851C59.6321 100.949 59.8142 101 60 101C60.1704 101 60.338 100.956 60.4869 100.873C60.6357 100.79 60.7608 100.67 60.8503 100.525C60.9399 100.38 60.9909 100.215 60.9985 100.045C61.0061 99.8743 60.97 99.7049 60.8937 99.5525ZM49.6175 95L53 88.2362L56.3813 95H49.6175Z" fill="#FCFCFC" fill-opacity="0.988235"/>
</svg>
