<svg width="68" height="68" viewBox="0 0 68 68" fill="none" xmlns="http://www.w3.org/2000/svg">
<circle cx="34" cy="34" r="34" fill="#57BEEA" fill-opacity="0.1"/>
<path d="M8 34C8 19.6406 19.6406 8 34 8C48.3594 8 60 19.6406 60 34C60 48.3594 48.3594 60 34 60C19.6406 60 8 48.3594 8 34Z" fill="white"/>
<path d="M34.0001 26.8571C32.3049 26.8571 30.6477 27.3598 29.2381 28.3017C27.8285 29.2435 26.7299 30.5822 26.0812 32.1484C25.4324 33.7147 25.2627 35.4381 25.5934 37.1008C25.9241 38.7635 26.7405 40.2907 27.9392 41.4895C29.138 42.6882 30.6652 43.5046 32.3279 43.8353C33.9906 44.166 35.7141 43.9963 37.2803 43.3475C38.8465 42.6988 40.1852 41.6002 41.127 40.1906C42.0689 38.781 42.5716 37.1238 42.5716 35.4286C42.569 33.1561 41.6651 30.9774 40.0582 29.3705C38.4513 27.7636 36.2726 26.8597 34.0001 26.8571ZM38.0769 32.3625L34.5055 35.9339C34.4391 36.0003 34.3603 36.0529 34.2736 36.0889C34.1869 36.1248 34.094 36.1433 34.0001 36.1433C33.9063 36.1433 33.8134 36.1248 33.7266 36.0889C33.6399 36.0529 33.5611 36.0003 33.4948 35.9339C33.4284 35.8676 33.3758 35.7888 33.3399 35.7021C33.3039 35.6154 33.2855 35.5224 33.2855 35.4286C33.2855 35.3347 33.3039 35.2418 33.3399 35.1551C33.3758 35.0684 33.4284 34.9896 33.4948 34.9232L37.0662 31.3518C37.1326 31.2854 37.2114 31.2328 37.2981 31.1969C37.3848 31.1609 37.4777 31.1425 37.5716 31.1425C37.6654 31.1425 37.7584 31.1609 37.8451 31.1969C37.9318 31.2328 38.0106 31.2854 38.0769 31.3518C38.1433 31.4181 38.1959 31.4969 38.2319 31.5836C38.2678 31.6704 38.2863 31.7633 38.2863 31.8571C38.2863 31.951 38.2678 32.0439 38.2319 32.1306C38.1959 32.2173 38.1433 32.2961 38.0769 32.3625ZM31.143 24.7143C31.143 24.5248 31.2183 24.3432 31.3522 24.2092C31.4862 24.0753 31.6678 24 31.8573 24H36.143C36.3324 24 36.5141 24.0753 36.6481 24.2092C36.782 24.3432 36.8573 24.5248 36.8573 24.7143C36.8573 24.9037 36.782 25.0854 36.6481 25.2194C36.5141 25.3533 36.3324 25.4286 36.143 25.4286H31.8573C31.6678 25.4286 31.4862 25.3533 31.3522 25.2194C31.2183 25.0854 31.143 24.9037 31.143 24.7143Z" fill="#012F5B"/>
</svg>
