<svg width="327" height="221" viewBox="0 0 327 221" fill="none" xmlns="http://www.w3.org/2000/svg">
<path opacity="0.15" d="M163 221C239.215 221 301 213.144 301 203.454C301 193.764 239.215 185.909 163 185.909C86.7847 185.909 25 193.764 25 203.454C25 213.144 86.7847 221 163 221Z" fill="#2C73B7"/>
<line x1="165" y1="54" x2="165" y2="141" stroke="#D9D9D9" stroke-width="4" stroke-dasharray="8 8"/>
<path d="M211.626 118.265H113.666C112.379 118.265 111.336 119.268 111.336 120.505V184.214C111.336 185.451 112.379 186.454 113.666 186.454H211.626C212.913 186.454 213.956 185.451 213.956 184.214V120.505C213.956 119.268 212.913 118.265 211.626 118.265Z" fill="#34373B"/>
<path d="M211.261 121.236H114.039V180.72H211.261V121.236Z" fill="#2BA7EC"/>
<path d="M193.816 146.233H131.477V150.9H193.816V146.233Z" fill="#207DB0"/>
<path d="M155.85 146.233H131.477V150.9H155.85V146.233Z" fill="white"/>
<path opacity="0.1" d="M153.132 180.72H121.006L165.613 121.236H197.739L153.132 180.72Z" fill="white"/>
<path d="M103.81 184.229V188.007C103.81 189.396 104.982 190.523 106.427 190.523H218.858C220.302 190.523 221.475 189.396 221.475 188.007V184.229H103.81Z" fill="#191A1C"/>
<path d="M142.498 184.229V184.684C142.498 185.924 143.539 186.924 144.828 186.924H180.456C181.746 186.924 182.787 185.924 182.787 184.684V184.229H142.498Z" fill="#1E1F21"/>
<path d="M193.966 24.1427L194.442 24.0879L194.388 24.5011C202.772 25.5896 209.239 32.7462 209.239 41.4311C209.239 50.8585 201.616 58.5 192.218 58.5H133.26C123.861 58.5 116.239 50.8585 116.239 41.4311C116.239 32.0037 123.861 24.3622 133.26 24.3622C133.391 24.3622 133.52 24.3723 133.668 24.3844L133.683 24.3857C133.821 24.397 133.979 24.4099 134.139 24.4099H134.535L134.626 24.0247C137.808 10.5364 149.831 0.5 164.284 0.5C178.736 0.5 190.807 10.6067 193.966 24.1427Z" fill="#2BA7EC" stroke="#2BA7EC"/>
<g clip-path="url(#clip0_564_2588)">
<path d="M177.288 40.0312L167.678 23.3774C166.602 21.5243 164.875 21.5243 163.799 23.3774L154.189 40.0312C153.113 41.8844 153.989 43.3869 156.141 43.3869H159.67V47.0933C159.67 49.222 161.422 50.975 163.549 50.975H167.929C170.056 50.975 171.808 49.222 171.808 47.0933V43.3869H175.336C177.463 43.3869 178.339 41.8844 177.288 40.0312Z" fill="#FCFCFC"/>
</g>
<rect x="159.239" y="35.1738" width="13" height="24.3261" fill="#FCFCFC" stroke="#FCFCFC"/>
<defs>
<clipPath id="clip0_564_2588">
<rect width="24" height="23.3261" fill="white" transform="translate(153.739 22)"/>
</clipPath>
</defs>
</svg>
